# 3ds Max Wavefront OBJ Exporter v0.97b - (c)2007 guruware
# File Created: 29.05.2019 17:10:16

#
# object Box002
#

v  -0.9614 0.0000 0.0953
v  -0.9614 0.0000 0.0318
v  -0.3205 0.0000 0.0318
v  -0.3205 0.0000 0.0953
v  0.3205 0.0000 0.0318
v  0.3205 0.0000 0.0953
v  0.9614 0.0000 0.0318
v  0.9614 0.0000 0.0953
v  -0.9614 0.0000 -0.0317
v  -0.3205 0.0000 -0.0317
v  0.3205 0.0000 -0.0317
v  0.9614 0.0000 -0.0317
v  -0.9614 0.0000 -0.0952
v  -0.3205 0.0000 -0.0952
v  0.3205 0.0000 -0.0952
v  0.9614 0.0000 -0.0952
v  -0.9614 0.0677 0.0953
v  -0.3205 0.0677 0.0953
v  -0.3205 0.0677 0.0318
v  -0.9614 0.0677 0.0318
v  0.3205 0.0677 0.0953
v  0.3205 0.0677 0.0318
v  0.9614 0.0677 0.0953
v  0.9614 0.0677 0.0318
v  -0.3205 0.0677 -0.0317
v  -0.9614 0.0677 -0.0317
v  0.3205 0.0677 -0.0317
v  0.9614 0.0677 -0.0317
v  -0.3205 0.0677 -0.0952
v  -0.9614 0.0677 -0.0952
v  0.3205 0.0677 -0.0952
v  0.9614 0.0677 -0.0952
v  -0.3205 0.0226 0.0953
v  -0.9614 0.0226 0.0953
v  0.3205 0.0226 0.0953
v  0.9614 0.0226 0.0953
v  -0.3205 0.0451 0.0953
v  -0.9614 0.0451 0.0953
v  0.3205 0.0451 0.0953
v  0.9614 0.0451 0.0953
v  0.9614 0.0226 0.0318
v  0.9614 0.0226 -0.0317
v  0.9614 0.0226 -0.0952
v  0.9614 0.0451 0.0318
v  0.9614 0.0451 -0.0317
v  0.9614 0.0451 -0.0952
v  0.3205 0.0226 -0.0952
v  -0.3205 0.0226 -0.0952
v  -0.9614 0.0226 -0.0952
v  0.3205 0.0451 -0.0952
v  -0.3205 0.0451 -0.0952
v  -0.9614 0.0451 -0.0952
v  -0.9614 0.0226 -0.0317
v  -0.9614 0.0226 0.0318
v  -0.9614 0.0451 -0.0317
v  -0.9614 0.0451 0.0318
# 56 vertices

vn 0.0000 -1.0000 -0.0000
vn 0.0000 1.0000 -0.0000
vn 0.0000 0.0000 1.0000
vn 1.0000 -0.0000 -0.0000
vn 1.0000 0.0000 -0.0000
vn 0.0000 -0.0000 -1.0000
vn 0.0000 0.0000 -1.0000
vn -1.0000 0.0000 -0.0000
# 8 vertex normals

vt 0.9234 0.0200 0.0000
vt 0.9234 0.1664 0.0000
vt 0.7771 0.1664 0.0000
vt 0.7771 0.0200 0.0000
vt 0.6307 0.1664 0.0000
vt 0.6307 0.0200 0.0000
vt 0.4843 0.1664 0.0000
vt 0.4843 0.0200 0.0000
vt 0.9234 0.3127 0.0000
vt 0.7771 0.3127 0.0000
vt 0.6307 0.3127 0.0000
vt 0.4843 0.3127 0.0000
vt 0.9234 0.4591 0.0000
vt 0.7771 0.4591 0.0000
vt 0.6307 0.4591 0.0000
vt 0.4843 0.4591 0.0000
vt 0.0200 0.0200 0.0000
vt 0.1664 0.0200 0.0000
vt 0.1664 0.1664 0.0000
vt 0.0200 0.1664 0.0000
vt 0.3127 0.0200 0.0000
vt 0.3127 0.1664 0.0000
vt 0.4591 0.0200 0.0000
vt 0.4591 0.1664 0.0000
vt 0.1664 0.3127 0.0000
vt 0.0200 0.3127 0.0000
vt 0.3127 0.3127 0.0000
vt 0.4591 0.3127 0.0000
vt 0.1664 0.4591 0.0000
vt 0.0200 0.4591 0.0000
vt 0.3127 0.4591 0.0000
vt 0.4591 0.4591 0.0000
vt 0.4888 0.4843 0.0000
vt 0.6267 0.4843 0.0000
vt 0.6267 0.6222 0.0000
vt 0.4888 0.6222 0.0000
vt 0.7645 0.4843 0.0000
vt 0.7645 0.6222 0.0000
vt 0.9024 0.4843 0.0000
vt 0.9024 0.6222 0.0000
vt 0.6267 0.7601 0.0000
vt 0.4888 0.7601 0.0000
vt 0.7645 0.7601 0.0000
vt 0.9024 0.7601 0.0000
vt 0.6267 0.8979 0.0000
vt 0.4888 0.8979 0.0000
vt 0.7645 0.8979 0.0000
vt 0.9024 0.8979 0.0000
vt 0.9264 0.5870 0.0000
vt 0.9442 0.5870 0.0000
vt 0.9442 0.6049 0.0000
vt 0.9264 0.6049 0.0000
vt 0.9621 0.5870 0.0000
vt 0.9621 0.6049 0.0000
vt 0.9800 0.5870 0.0000
vt 0.9800 0.6049 0.0000
vt 0.9442 0.6228 0.0000
vt 0.9264 0.6228 0.0000
vt 0.9621 0.6228 0.0000
vt 0.9800 0.6228 0.0000
vt 0.9442 0.6407 0.0000
vt 0.9264 0.6407 0.0000
vt 0.9621 0.6407 0.0000
vt 0.9800 0.6407 0.0000
vt 0.0379 0.4843 0.0000
vt 0.1757 0.4843 0.0000
vt 0.1757 0.6222 0.0000
vt 0.0379 0.6222 0.0000
vt 0.3136 0.4843 0.0000
vt 0.3136 0.6222 0.0000
vt 0.4515 0.4843 0.0000
vt 0.4515 0.6222 0.0000
vt 0.1757 0.7601 0.0000
vt 0.0379 0.7601 0.0000
vt 0.3136 0.7601 0.0000
vt 0.4515 0.7601 0.0000
vt 0.1757 0.8979 0.0000
vt 0.0379 0.8979 0.0000
vt 0.3136 0.8979 0.0000
vt 0.4515 0.8979 0.0000
vt 0.9264 0.4977 0.0000
vt 0.9442 0.4977 0.0000
vt 0.9442 0.5156 0.0000
vt 0.9264 0.5156 0.0000
vt 0.9621 0.4977 0.0000
vt 0.9621 0.5156 0.0000
vt 0.9800 0.4977 0.0000
vt 0.9800 0.5156 0.0000
vt 0.9442 0.5335 0.0000
vt 0.9264 0.5335 0.0000
vt 0.9621 0.5335 0.0000
vt 0.9800 0.5335 0.0000
vt 0.9442 0.5514 0.0000
vt 0.9264 0.5514 0.0000
vt 0.9621 0.5514 0.0000
vt 0.9800 0.5514 0.0000
# 96 texture coords

o Box002
g Box002
f 1/1/1 2/2/1 3/3/1 
f 3/3/1 4/4/1 1/1/1 
f 4/4/1 3/3/1 5/5/1 
f 5/5/1 6/6/1 4/4/1 
f 6/6/1 5/5/1 7/7/1 
f 7/7/1 8/8/1 6/6/1 
f 2/2/1 9/9/1 10/10/1 
f 10/10/1 3/3/1 2/2/1 
f 3/3/1 10/10/1 11/11/1 
f 11/11/1 5/5/1 3/3/1 
f 5/5/1 11/11/1 12/12/1 
f 12/12/1 7/7/1 5/5/1 
f 9/9/1 13/13/1 14/14/1 
f 14/14/1 10/10/1 9/9/1 
f 10/10/1 14/14/1 15/15/1 
f 15/15/1 11/11/1 10/10/1 
f 11/11/1 15/15/1 16/16/1 
f 16/16/1 12/12/1 11/11/1 
f 17/17/2 18/18/2 19/19/2 
f 19/19/2 20/20/2 17/17/2 
f 18/18/2 21/21/2 22/22/2 
f 22/22/2 19/19/2 18/18/2 
f 21/21/2 23/23/2 24/24/2 
f 24/24/2 22/22/2 21/21/2 
f 20/20/2 19/19/2 25/25/2 
f 25/25/2 26/26/2 20/20/2 
f 19/19/2 22/22/2 27/27/2 
f 27/27/2 25/25/2 19/19/2 
f 22/22/2 24/24/2 28/28/2 
f 28/28/2 27/27/2 22/22/2 
f 26/26/2 25/25/2 29/29/2 
f 29/29/2 30/30/2 26/26/2 
f 25/25/2 27/27/2 31/31/2 
f 31/31/2 29/29/2 25/25/2 
f 27/27/2 28/28/2 32/32/2 
f 32/32/2 31/31/2 27/27/2 
f 1/33/3 4/34/3 33/35/3 
f 33/35/3 34/36/3 1/33/3 
f 4/34/3 6/37/3 35/38/3 
f 35/38/3 33/35/3 4/34/3 
f 6/37/3 8/39/3 36/40/3 
f 36/40/3 35/38/3 6/37/3 
f 34/36/3 33/35/3 37/41/3 
f 37/41/3 38/42/3 34/36/3 
f 33/35/3 35/38/3 39/43/3 
f 39/43/3 37/41/3 33/35/3 
f 35/38/3 36/40/3 40/44/3 
f 40/44/3 39/43/3 35/38/3 
f 38/42/3 37/41/3 18/45/3 
f 18/45/3 17/46/3 38/42/3 
f 37/41/3 39/43/3 21/47/3 
f 21/47/3 18/45/3 37/41/3 
f 39/43/3 40/44/3 23/48/3 
f 23/48/3 21/47/3 39/43/3 
f 8/49/4 7/50/4 41/51/4 
f 41/51/4 36/52/4 8/49/4 
f 7/50/4 12/53/4 42/54/4 
f 42/54/4 41/51/4 7/50/4 
f 12/53/4 16/55/4 43/56/4 
f 43/56/4 42/54/4 12/53/4 
f 36/52/4 41/51/4 44/57/5 
f 44/57/5 40/58/5 36/52/4 
f 41/51/4 42/54/4 45/59/5 
f 45/59/5 44/57/5 41/51/4 
f 42/54/4 43/56/4 46/60/5 
f 46/60/5 45/59/5 42/54/4 
f 40/58/5 44/57/5 24/61/5 
f 24/61/5 23/62/5 40/58/5 
f 44/57/5 45/59/5 28/63/5 
f 28/63/5 24/61/5 44/57/5 
f 45/59/5 46/60/5 32/64/5 
f 32/64/5 28/63/5 45/59/5 
f 16/65/6 15/66/6 47/67/6 
f 47/67/6 43/68/6 16/65/6 
f 15/66/6 14/69/6 48/70/6 
f 48/70/6 47/67/6 15/66/6 
f 14/69/6 13/71/6 49/72/6 
f 49/72/6 48/70/6 14/69/6 
f 43/68/6 47/67/6 50/73/7 
f 50/73/7 46/74/7 43/68/6 
f 47/67/6 48/70/6 51/75/7 
f 51/75/7 50/73/7 47/67/6 
f 48/70/6 49/72/6 52/76/7 
f 52/76/7 51/75/7 48/70/6 
f 46/74/7 50/73/7 31/77/7 
f 31/77/7 32/78/7 46/74/7 
f 50/73/7 51/75/7 29/79/7 
f 29/79/7 31/77/7 50/73/7 
f 51/75/7 52/76/7 30/80/7 
f 30/80/7 29/79/7 51/75/7 
f 13/81/8 9/82/8 53/83/8 
f 53/83/8 49/84/8 13/81/8 
f 9/82/8 2/85/8 54/86/8 
f 54/86/8 53/83/8 9/82/8 
f 2/85/8 1/87/8 34/88/8 
f 34/88/8 54/86/8 2/85/8 
f 49/84/8 53/83/8 55/89/8 
f 55/89/8 52/90/8 49/84/8 
f 53/83/8 54/86/8 56/91/8 
f 56/91/8 55/89/8 53/83/8 
f 54/86/8 34/88/8 38/92/8 
f 38/92/8 56/91/8 54/86/8 
f 52/90/8 55/89/8 26/93/8 
f 26/93/8 30/94/8 52/90/8 
f 55/89/8 56/91/8 20/95/8 
f 20/95/8 26/93/8 55/89/8 
f 56/91/8 38/92/8 17/96/8 
f 17/96/8 20/95/8 56/91/8 
# 108 faces

