# 3ds Max Wavefront OBJ Exporter v0.97b - (c)2007 guruware
# File Created: 28.05.2019 17:07:21

#
# object Box001
#

v  -10.0000 -3.0000 25.0000
v  -10.0000 -3.0000 8.3333
v  -3.3333 -3.0000 8.3333
v  -3.3333 -3.0000 25.0000
v  3.3333 -3.0000 8.3333
v  3.3333 -3.0000 25.0000
v  10.0000 -3.0000 8.3333
v  10.0000 -3.0000 25.0000
v  -10.0000 -3.0000 -8.3333
v  -3.3333 -3.0000 -8.3333
v  3.3333 -3.0000 -8.3333
v  10.0000 -3.0000 -8.3333
v  -10.0000 -3.0000 -25.0000
v  -3.3333 -3.0000 -25.0000
v  3.3333 -3.0000 -25.0000
v  10.0000 -3.0000 -25.0000
v  -10.0000 0.0000 25.0000
v  -3.3333 0.0000 25.0000
v  -3.3333 0.0000 8.3333
v  -10.0000 0.0000 8.3333
v  3.3333 0.0000 25.0000
v  3.3333 0.0000 8.3333
v  10.0000 0.0000 25.0000
v  10.0000 0.0000 8.3333
v  -3.3333 0.0000 -8.3333
v  -10.0000 0.0000 -8.3333
v  3.3333 0.0000 -8.3333
v  10.0000 0.0000 -8.3333
v  -3.3333 0.0000 -25.0000
v  -10.0000 0.0000 -25.0000
v  3.3333 0.0000 -25.0000
v  10.0000 0.0000 -25.0000
v  -3.3333 -2.0000 25.0000
v  -10.0000 -2.0000 25.0000
v  3.3333 -2.0000 25.0000
v  10.0000 -2.0000 25.0000
v  -3.3333 -1.0000 25.0000
v  -10.0000 -1.0000 25.0000
v  3.3333 -1.0000 25.0000
v  10.0000 -1.0000 25.0000
v  10.0000 -2.0000 8.3333
v  10.0000 -2.0000 -8.3333
v  10.0000 -2.0000 -25.0000
v  10.0000 -1.0000 8.3333
v  10.0000 -1.0000 -8.3333
v  10.0000 -1.0000 -25.0000
v  3.3333 -2.0000 -25.0000
v  -3.3333 -2.0000 -25.0000
v  -10.0000 -2.0000 -25.0000
v  3.3333 -1.0000 -25.0000
v  -3.3333 -1.0000 -25.0000
v  -10.0000 -1.0000 -25.0000
v  -10.0000 -2.0000 -8.3333
v  -10.0000 -2.0000 8.3333
v  -10.0000 -1.0000 -8.3333
v  -10.0000 -1.0000 8.3333
# 56 vertices

vn 0.0000 -1.0000 -0.0000
vn 0.0000 1.0000 -0.0000
vn 0.0000 0.0000 1.0000
vn 1.0000 0.0000 -0.0000
vn 0.0000 -0.0000 -1.0000
vn 0.0000 0.0000 -1.0000
vn -1.0000 0.0000 -0.0000
# 7 vertex normals

vt 0.6531 0.0200 0.0000
vt 0.6531 0.2751 0.0000
vt 0.5510 0.2751 0.0000
vt 0.5510 0.0200 0.0000
vt 0.4490 0.2751 0.0000
vt 0.4490 0.0200 0.0000
vt 0.3469 0.2751 0.0000
vt 0.3469 0.0200 0.0000
vt 0.6531 0.5303 0.0000
vt 0.5510 0.5303 0.0000
vt 0.4490 0.5303 0.0000
vt 0.3469 0.5303 0.0000
vt 0.6531 0.7854 0.0000
vt 0.5510 0.7854 0.0000
vt 0.4490 0.7854 0.0000
vt 0.3469 0.7854 0.0000
vt 0.0200 0.0200 0.0000
vt 0.1221 0.0200 0.0000
vt 0.1221 0.2751 0.0000
vt 0.0200 0.2751 0.0000
vt 0.2241 0.0200 0.0000
vt 0.2241 0.2751 0.0000
vt 0.3262 0.0200 0.0000
vt 0.3262 0.2751 0.0000
vt 0.1221 0.5303 0.0000
vt 0.0200 0.5303 0.0000
vt 0.2241 0.5303 0.0000
vt 0.3262 0.5303 0.0000
vt 0.1221 0.7854 0.0000
vt 0.0200 0.7854 0.0000
vt 0.2241 0.7854 0.0000
vt 0.3262 0.7854 0.0000
vt 0.6738 0.0997 0.0000
vt 0.7759 0.0997 0.0000
vt 0.7759 0.1150 0.0000
vt 0.6738 0.1150 0.0000
vt 0.8779 0.0997 0.0000
vt 0.8779 0.1150 0.0000
vt 0.9800 0.0997 0.0000
vt 0.9800 0.1150 0.0000
vt 0.7759 0.1304 0.0000
vt 0.6738 0.1304 0.0000
vt 0.8779 0.1304 0.0000
vt 0.9800 0.1304 0.0000
vt 0.7759 0.1457 0.0000
vt 0.6738 0.1457 0.0000
vt 0.8779 0.1457 0.0000
vt 0.9800 0.1457 0.0000
vt 0.0359 0.8413 0.0000
vt 0.2911 0.8413 0.0000
vt 0.2911 0.8566 0.0000
vt 0.0359 0.8566 0.0000
vt 0.5462 0.8413 0.0000
vt 0.5462 0.8566 0.0000
vt 0.8014 0.8413 0.0000
vt 0.8014 0.8566 0.0000
vt 0.2911 0.8719 0.0000
vt 0.0359 0.8719 0.0000
vt 0.5462 0.8719 0.0000
vt 0.8014 0.8719 0.0000
vt 0.2911 0.8872 0.0000
vt 0.0359 0.8872 0.0000
vt 0.5462 0.8872 0.0000
vt 0.8014 0.8872 0.0000
vt 0.6738 0.0200 0.0000
vt 0.7759 0.0200 0.0000
vt 0.7759 0.0353 0.0000
vt 0.6738 0.0353 0.0000
vt 0.8779 0.0200 0.0000
vt 0.8779 0.0353 0.0000
vt 0.9800 0.0200 0.0000
vt 0.9800 0.0353 0.0000
vt 0.7759 0.0506 0.0000
vt 0.6738 0.0506 0.0000
vt 0.8779 0.0506 0.0000
vt 0.9800 0.0506 0.0000
vt 0.7759 0.0659 0.0000
vt 0.6738 0.0659 0.0000
vt 0.8779 0.0659 0.0000
vt 0.9800 0.0659 0.0000
vt 0.0359 0.9170 0.0000
vt 0.2911 0.9170 0.0000
vt 0.2911 0.9323 0.0000
vt 0.0359 0.9323 0.0000
vt 0.5462 0.9170 0.0000
vt 0.5462 0.9323 0.0000
vt 0.8014 0.9170 0.0000
vt 0.8014 0.9323 0.0000
vt 0.2911 0.9476 0.0000
vt 0.0359 0.9476 0.0000
vt 0.5462 0.9476 0.0000
vt 0.8014 0.9476 0.0000
vt 0.2911 0.9630 0.0000
vt 0.0359 0.9630 0.0000
vt 0.5462 0.9630 0.0000
vt 0.8014 0.9630 0.0000
# 96 texture coords

g Box001
f 1/1/1 2/2/1 3/3/1 
f 3/3/1 4/4/1 1/1/1 
f 4/4/1 3/3/1 5/5/1 
f 5/5/1 6/6/1 4/4/1 
f 6/6/1 5/5/1 7/7/1 
f 7/7/1 8/8/1 6/6/1 
f 2/2/1 9/9/1 10/10/1 
f 10/10/1 3/3/1 2/2/1 
f 3/3/1 10/10/1 11/11/1 
f 11/11/1 5/5/1 3/3/1 
f 5/5/1 11/11/1 12/12/1 
f 12/12/1 7/7/1 5/5/1 
f 9/9/1 13/13/1 14/14/1 
f 14/14/1 10/10/1 9/9/1 
f 10/10/1 14/14/1 15/15/1 
f 15/15/1 11/11/1 10/10/1 
f 11/11/1 15/15/1 16/16/1 
f 16/16/1 12/12/1 11/11/1 
f 17/17/2 18/18/2 19/19/2 
f 19/19/2 20/20/2 17/17/2 
f 18/18/2 21/21/2 22/22/2 
f 22/22/2 19/19/2 18/18/2 
f 21/21/2 23/23/2 24/24/2 
f 24/24/2 22/22/2 21/21/2 
f 20/20/2 19/19/2 25/25/2 
f 25/25/2 26/26/2 20/20/2 
f 19/19/2 22/22/2 27/27/2 
f 27/27/2 25/25/2 19/19/2 
f 22/22/2 24/24/2 28/28/2 
f 28/28/2 27/27/2 22/22/2 
f 26/26/2 25/25/2 29/29/2 
f 29/29/2 30/30/2 26/26/2 
f 25/25/2 27/27/2 31/31/2 
f 31/31/2 29/29/2 25/25/2 
f 27/27/2 28/28/2 32/32/2 
f 32/32/2 31/31/2 27/27/2 
f 1/33/3 4/34/3 33/35/3 
f 33/35/3 34/36/3 1/33/3 
f 4/34/3 6/37/3 35/38/3 
f 35/38/3 33/35/3 4/34/3 
f 6/37/3 8/39/3 36/40/3 
f 36/40/3 35/38/3 6/37/3 
f 34/36/3 33/35/3 37/41/3 
f 37/41/3 38/42/3 34/36/3 
f 33/35/3 35/38/3 39/43/3 
f 39/43/3 37/41/3 33/35/3 
f 35/38/3 36/40/3 40/44/3 
f 40/44/3 39/43/3 35/38/3 
f 38/42/3 37/41/3 18/45/3 
f 18/45/3 17/46/3 38/42/3 
f 37/41/3 39/43/3 21/47/3 
f 21/47/3 18/45/3 37/41/3 
f 39/43/3 40/44/3 23/48/3 
f 23/48/3 21/47/3 39/43/3 
f 8/49/4 7/50/4 41/51/4 
f 41/51/4 36/52/4 8/49/4 
f 7/50/4 12/53/4 42/54/4 
f 42/54/4 41/51/4 7/50/4 
f 12/53/4 16/55/4 43/56/4 
f 43/56/4 42/54/4 12/53/4 
f 36/52/4 41/51/4 44/57/4 
f 44/57/4 40/58/4 36/52/4 
f 41/51/4 42/54/4 45/59/4 
f 45/59/4 44/57/4 41/51/4 
f 42/54/4 43/56/4 46/60/4 
f 46/60/4 45/59/4 42/54/4 
f 40/58/4 44/57/4 24/61/4 
f 24/61/4 23/62/4 40/58/4 
f 44/57/4 45/59/4 28/63/4 
f 28/63/4 24/61/4 44/57/4 
f 45/59/4 46/60/4 32/64/4 
f 32/64/4 28/63/4 45/59/4 
f 16/65/5 15/66/5 47/67/5 
f 47/67/5 43/68/5 16/65/5 
f 15/66/5 14/69/5 48/70/5 
f 48/70/5 47/67/5 15/66/5 
f 14/69/5 13/71/5 49/72/5 
f 49/72/5 48/70/5 14/69/5 
f 43/68/5 47/67/5 50/73/6 
f 50/73/6 46/74/6 43/68/5 
f 47/67/5 48/70/5 51/75/6 
f 51/75/6 50/73/6 47/67/5 
f 48/70/5 49/72/5 52/76/6 
f 52/76/6 51/75/6 48/70/5 
f 46/74/6 50/73/6 31/77/6 
f 31/77/6 32/78/6 46/74/6 
f 50/73/6 51/75/6 29/79/6 
f 29/79/6 31/77/6 50/73/6 
f 51/75/6 52/76/6 30/80/6 
f 30/80/6 29/79/6 51/75/6 
f 13/81/7 9/82/7 53/83/7 
f 53/83/7 49/84/7 13/81/7 
f 9/82/7 2/85/7 54/86/7 
f 54/86/7 53/83/7 9/82/7 
f 2/85/7 1/87/7 34/88/7 
f 34/88/7 54/86/7 2/85/7 
f 49/84/7 53/83/7 55/89/7 
f 55/89/7 52/90/7 49/84/7 
f 53/83/7 54/86/7 56/91/7 
f 56/91/7 55/89/7 53/83/7 
f 54/86/7 34/88/7 38/92/7 
f 38/92/7 56/91/7 54/86/7 
f 52/90/7 55/89/7 26/93/7 
f 26/93/7 30/94/7 52/90/7 
f 55/89/7 56/91/7 20/95/7 
f 20/95/7 26/93/7 55/89/7 
f 56/91/7 38/92/7 17/96/7 
f 17/96/7 20/95/7 56/91/7 
# 108 faces

