# 3ds Max Wavefront OBJ Exporter v0.97b - (c)2007 guruware
# File Created: 26.05.2019 12:42:56

#
# object Box001
#

v  -1.5000 0.0000 0.4650
v  -1.5000 0.0000 0.2650
v  -0.9000 0.0000 0.2650
v  -0.9000 0.0000 0.4650
v  -0.3000 0.0000 0.2650
v  -0.3000 0.0000 0.4650
v  0.3000 0.0000 0.2650
v  0.3000 0.0000 0.4650
v  0.9000 0.0000 0.2650
v  0.9000 0.0000 0.4650
v  1.5000 0.0000 0.2650
v  1.5000 0.0000 0.4650
v  -1.5000 0.0000 0.0650
v  -0.9000 0.0000 0.0650
v  -0.3000 0.0000 0.0650
v  0.3000 0.0000 0.0650
v  0.9000 0.0000 0.0650
v  1.5000 0.0000 0.0650
v  -1.5000 0.0000 -0.1350
v  -0.9000 0.0000 -0.1350
v  -0.3000 0.0000 -0.1350
v  0.3000 0.0000 -0.1350
v  0.9000 0.0000 -0.1350
v  1.5000 0.0000 -0.1350
v  -1.5000 0.0000 -0.3350
v  -0.9000 0.0000 -0.3350
v  -0.3000 0.0000 -0.3350
v  0.3000 0.0000 -0.3350
v  0.9000 0.0000 -0.3350
v  1.5000 0.0000 -0.3350
v  -1.5000 0.0000 -0.5350
v  -0.9000 0.0000 -0.5350
v  -0.3000 0.0000 -0.5350
v  0.3000 0.0000 -0.5350
v  0.9000 0.0000 -0.5350
v  1.5000 0.0000 -0.5350
v  -1.5000 0.2000 0.4650
v  -0.9000 0.2000 0.4650
v  -0.9000 0.2000 0.2650
v  -1.5000 0.2000 0.2650
v  -0.3000 0.2000 0.4650
v  -0.3000 0.2000 0.2650
v  0.3000 0.2000 0.4650
v  0.3000 0.2000 0.2650
v  0.9000 0.2000 0.4650
v  0.9000 0.2000 0.2650
v  1.5000 0.2000 0.4650
v  1.5000 0.2000 0.2650
v  -0.9000 0.2000 0.0650
v  -1.5000 0.2000 0.0650
v  -0.3000 0.2000 0.0650
v  0.3000 0.2000 0.0650
v  0.9000 0.2000 0.0650
v  1.5000 0.2000 0.0650
v  -0.9000 0.2000 -0.1350
v  -1.5000 0.2000 -0.1350
v  -0.3000 0.2000 -0.1350
v  0.3000 0.2000 -0.1350
v  0.9000 0.2000 -0.1350
v  1.5000 0.2000 -0.1350
v  -0.9000 0.2000 -0.3350
v  -1.5000 0.2000 -0.3350
v  -0.3000 0.2000 -0.3350
v  0.3000 0.2000 -0.3350
v  0.9000 0.2000 -0.3350
v  1.5000 0.2000 -0.3350
v  -0.9000 0.2000 -0.5350
v  -1.5000 0.2000 -0.5350
v  -0.3000 0.2000 -0.5350
v  0.3000 0.2000 -0.5350
v  0.9000 0.2000 -0.5350
v  1.5000 0.2000 -0.5350
v  -0.9000 0.0400 0.4650
v  -1.5000 0.0400 0.4650
v  -0.3000 0.0400 0.4650
v  0.3000 0.0400 0.4650
v  0.9000 0.0400 0.4650
v  1.5000 0.0400 0.4650
v  -0.9000 0.0800 0.4650
v  -1.5000 0.0800 0.4650
v  -0.3000 0.0800 0.4650
v  0.3000 0.0800 0.4650
v  0.9000 0.0800 0.4650
v  1.5000 0.0800 0.4650
v  -0.9000 0.1200 0.4650
v  -1.5000 0.1200 0.4650
v  -0.3000 0.1200 0.4650
v  0.3000 0.1200 0.4650
v  0.9000 0.1200 0.4650
v  1.5000 0.1200 0.4650
v  -0.9000 0.1600 0.4650
v  -1.5000 0.1600 0.4650
v  -0.3000 0.1600 0.4650
v  0.3000 0.1600 0.4650
v  0.9000 0.1600 0.4650
v  1.5000 0.1600 0.4650
v  1.5000 0.0400 0.2650
v  1.5000 0.0400 0.0650
v  1.5000 0.0400 -0.1350
v  1.5000 0.0400 -0.3350
v  1.5000 0.0400 -0.5350
v  1.5000 0.0800 0.2650
v  1.5000 0.0800 0.0650
v  1.5000 0.0800 -0.1350
v  1.5000 0.0800 -0.3350
v  1.5000 0.0800 -0.5350
v  1.5000 0.1200 0.2650
v  1.5000 0.1200 0.0650
v  1.5000 0.1200 -0.1350
v  1.5000 0.1200 -0.3350
v  1.5000 0.1200 -0.5350
v  1.5000 0.1600 0.2650
v  1.5000 0.1600 0.0650
v  1.5000 0.1600 -0.1350
v  1.5000 0.1600 -0.3350
v  1.5000 0.1600 -0.5350
v  0.9000 0.0400 -0.5350
v  0.3000 0.0400 -0.5350
v  -0.3000 0.0400 -0.5350
v  -0.9000 0.0400 -0.5350
v  -1.5000 0.0400 -0.5350
v  0.9000 0.0800 -0.5350
v  0.3000 0.0800 -0.5350
v  -0.3000 0.0800 -0.5350
v  -0.9000 0.0800 -0.5350
v  -1.5000 0.0800 -0.5350
v  0.9000 0.1200 -0.5350
v  0.3000 0.1200 -0.5350
v  -0.3000 0.1200 -0.5350
v  -0.9000 0.1200 -0.5350
v  -1.5000 0.1200 -0.5350
v  0.9000 0.1600 -0.5350
v  0.3000 0.1600 -0.5350
v  -0.3000 0.1600 -0.5350
v  -0.9000 0.1600 -0.5350
v  -1.5000 0.1600 -0.5350
v  -1.5000 0.0400 -0.3350
v  -1.5000 0.0400 -0.1350
v  -1.5000 0.0400 0.0650
v  -1.5000 0.0400 0.2650
v  -1.5000 0.0800 -0.3350
v  -1.5000 0.0800 -0.1350
v  -1.5000 0.0800 0.0650
v  -1.5000 0.0800 0.2650
v  -1.5000 0.1200 -0.3350
v  -1.5000 0.1200 -0.1350
v  -1.5000 0.1200 0.0650
v  -1.5000 0.1200 0.2650
v  -1.5000 0.1600 -0.3350
v  -1.5000 0.1600 -0.1350
v  -1.5000 0.1600 0.0650
v  -1.5000 0.1600 0.2650
# 152 vertices

vn 0.0000 -1.0000 -0.0000
vn 0.0000 1.0000 -0.0000
vn 0.0000 0.0000 1.0000
vn 1.0000 0.0000 -0.0000
vn 1.0000 -0.0000 -0.0000
vn 0.0000 0.0000 -1.0000
vn -1.0000 0.0000 -0.0000
# 7 vertex normals

vt 0.9800 0.1977 0.0000
vt 0.9800 0.2617 0.0000
vt 0.7880 0.2617 0.0000
vt 0.7880 0.1977 0.0000
vt 0.5960 0.2617 0.0000
vt 0.5960 0.1977 0.0000
vt 0.4040 0.2617 0.0000
vt 0.4040 0.1977 0.0000
vt 0.2120 0.2617 0.0000
vt 0.2120 0.1977 0.0000
vt 0.0200 0.2617 0.0000
vt 0.0200 0.1977 0.0000
vt 0.9800 0.3257 0.0000
vt 0.7880 0.3257 0.0000
vt 0.5960 0.3257 0.0000
vt 0.4040 0.3257 0.0000
vt 0.2120 0.3257 0.0000
vt 0.0200 0.3257 0.0000
vt 0.9800 0.3897 0.0000
vt 0.7880 0.3897 0.0000
vt 0.5960 0.3897 0.0000
vt 0.4040 0.3897 0.0000
vt 0.2120 0.3897 0.0000
vt 0.0200 0.3897 0.0000
vt 0.9800 0.4537 0.0000
vt 0.7880 0.4537 0.0000
vt 0.5960 0.4537 0.0000
vt 0.4040 0.4537 0.0000
vt 0.2120 0.4537 0.0000
vt 0.0200 0.4537 0.0000
vt 0.9800 0.5177 0.0000
vt 0.7880 0.5177 0.0000
vt 0.5960 0.5177 0.0000
vt 0.4040 0.5177 0.0000
vt 0.2120 0.5177 0.0000
vt 0.0200 0.5177 0.0000
vt 0.0200 0.5438 0.0000
vt 0.2120 0.5438 0.0000
vt 0.2120 0.6078 0.0000
vt 0.0200 0.6078 0.0000
vt 0.4040 0.5438 0.0000
vt 0.4040 0.6078 0.0000
vt 0.5960 0.5438 0.0000
vt 0.5960 0.6078 0.0000
vt 0.7880 0.5438 0.0000
vt 0.7880 0.6078 0.0000
vt 0.9800 0.5438 0.0000
vt 0.9800 0.6078 0.0000
vt 0.2120 0.6718 0.0000
vt 0.0200 0.6718 0.0000
vt 0.4040 0.6718 0.0000
vt 0.5960 0.6718 0.0000
vt 0.7880 0.6718 0.0000
vt 0.9800 0.6718 0.0000
vt 0.2120 0.7358 0.0000
vt 0.0200 0.7358 0.0000
vt 0.4040 0.7358 0.0000
vt 0.5960 0.7358 0.0000
vt 0.7880 0.7358 0.0000
vt 0.9800 0.7358 0.0000
vt 0.2120 0.7998 0.0000
vt 0.0200 0.7998 0.0000
vt 0.4040 0.7998 0.0000
vt 0.5960 0.7998 0.0000
vt 0.7880 0.7998 0.0000
vt 0.9800 0.7998 0.0000
vt 0.2120 0.8638 0.0000
vt 0.0200 0.8638 0.0000
vt 0.4040 0.8638 0.0000
vt 0.5960 0.8638 0.0000
vt 0.7880 0.8638 0.0000
vt 0.9800 0.8638 0.0000
vt 0.0200 0.1089 0.0000
vt 0.2120 0.1089 0.0000
vt 0.2120 0.1217 0.0000
vt 0.0200 0.1217 0.0000
vt 0.4040 0.1089 0.0000
vt 0.4040 0.1217 0.0000
vt 0.5960 0.1089 0.0000
vt 0.5960 0.1217 0.0000
vt 0.7880 0.1089 0.0000
vt 0.7880 0.1217 0.0000
vt 0.9800 0.1089 0.0000
vt 0.9800 0.1217 0.0000
vt 0.2120 0.1345 0.0000
vt 0.0200 0.1345 0.0000
vt 0.4040 0.1345 0.0000
vt 0.5960 0.1345 0.0000
vt 0.7880 0.1345 0.0000
vt 0.9800 0.1345 0.0000
vt 0.2120 0.1473 0.0000
vt 0.0200 0.1473 0.0000
vt 0.4040 0.1473 0.0000
vt 0.5960 0.1473 0.0000
vt 0.7880 0.1473 0.0000
vt 0.9800 0.1473 0.0000
vt 0.2120 0.1601 0.0000
vt 0.0200 0.1601 0.0000
vt 0.4040 0.1601 0.0000
vt 0.5960 0.1601 0.0000
vt 0.7880 0.1601 0.0000
vt 0.9800 0.1601 0.0000
vt 0.2120 0.1729 0.0000
vt 0.0200 0.1729 0.0000
vt 0.4040 0.1729 0.0000
vt 0.5960 0.1729 0.0000
vt 0.7880 0.1729 0.0000
vt 0.9800 0.1729 0.0000
vt 0.3754 0.8899 0.0000
vt 0.4394 0.8899 0.0000
vt 0.4394 0.9027 0.0000
vt 0.3754 0.9027 0.0000
vt 0.5034 0.8899 0.0000
vt 0.5034 0.9027 0.0000
vt 0.5674 0.8899 0.0000
vt 0.5674 0.9027 0.0000
vt 0.6314 0.8899 0.0000
vt 0.6314 0.9027 0.0000
vt 0.6954 0.8899 0.0000
vt 0.6954 0.9027 0.0000
vt 0.4394 0.9155 0.0000
vt 0.3754 0.9155 0.0000
vt 0.5034 0.9155 0.0000
vt 0.5674 0.9155 0.0000
vt 0.6314 0.9155 0.0000
vt 0.6954 0.9155 0.0000
vt 0.4394 0.9283 0.0000
vt 0.3754 0.9283 0.0000
vt 0.5034 0.9283 0.0000
vt 0.5674 0.9283 0.0000
vt 0.6314 0.9283 0.0000
vt 0.6954 0.9283 0.0000
vt 0.4394 0.9411 0.0000
vt 0.3754 0.9411 0.0000
vt 0.5034 0.9411 0.0000
vt 0.5674 0.9411 0.0000
vt 0.6314 0.9411 0.0000
vt 0.6954 0.9411 0.0000
vt 0.4394 0.9539 0.0000
vt 0.3754 0.9539 0.0000
vt 0.5034 0.9539 0.0000
vt 0.5674 0.9539 0.0000
vt 0.6314 0.9539 0.0000
vt 0.6954 0.9539 0.0000
vt 0.0200 0.0200 0.0000
vt 0.2120 0.0200 0.0000
vt 0.2120 0.0328 0.0000
vt 0.0200 0.0328 0.0000
vt 0.4040 0.0200 0.0000
vt 0.4040 0.0328 0.0000
vt 0.5960 0.0200 0.0000
vt 0.5960 0.0328 0.0000
vt 0.7880 0.0200 0.0000
vt 0.7880 0.0328 0.0000
vt 0.9800 0.0200 0.0000
vt 0.9800 0.0328 0.0000
vt 0.2120 0.0456 0.0000
vt 0.0200 0.0456 0.0000
vt 0.4040 0.0456 0.0000
vt 0.5960 0.0456 0.0000
vt 0.7880 0.0456 0.0000
vt 0.9800 0.0456 0.0000
vt 0.2120 0.0584 0.0000
vt 0.0200 0.0584 0.0000
vt 0.4040 0.0584 0.0000
vt 0.5960 0.0584 0.0000
vt 0.7880 0.0584 0.0000
vt 0.9800 0.0584 0.0000
vt 0.2120 0.0712 0.0000
vt 0.0200 0.0712 0.0000
vt 0.4040 0.0712 0.0000
vt 0.5960 0.0712 0.0000
vt 0.7880 0.0712 0.0000
vt 0.9800 0.0712 0.0000
vt 0.2120 0.0840 0.0000
vt 0.0200 0.0840 0.0000
vt 0.4040 0.0840 0.0000
vt 0.5960 0.0840 0.0000
vt 0.7880 0.0840 0.0000
vt 0.9800 0.0840 0.0000
vt 0.0200 0.8899 0.0000
vt 0.0840 0.8899 0.0000
vt 0.0840 0.9027 0.0000
vt 0.0200 0.9027 0.0000
vt 0.1480 0.8899 0.0000
vt 0.1480 0.9027 0.0000
vt 0.2120 0.8899 0.0000
vt 0.2120 0.9027 0.0000
vt 0.2760 0.8899 0.0000
vt 0.2760 0.9027 0.0000
vt 0.3400 0.8899 0.0000
vt 0.3400 0.9027 0.0000
vt 0.0840 0.9155 0.0000
vt 0.0200 0.9155 0.0000
vt 0.1480 0.9155 0.0000
vt 0.2120 0.9155 0.0000
vt 0.2760 0.9155 0.0000
vt 0.3400 0.9155 0.0000
vt 0.0840 0.9283 0.0000
vt 0.0200 0.9283 0.0000
vt 0.1480 0.9283 0.0000
vt 0.2120 0.9283 0.0000
vt 0.2760 0.9283 0.0000
vt 0.3400 0.9283 0.0000
vt 0.0840 0.9411 0.0000
vt 0.0200 0.9411 0.0000
vt 0.1480 0.9411 0.0000
vt 0.2120 0.9411 0.0000
vt 0.2760 0.9411 0.0000
vt 0.3400 0.9411 0.0000
vt 0.0840 0.9539 0.0000
vt 0.0200 0.9539 0.0000
vt 0.1480 0.9539 0.0000
vt 0.2120 0.9539 0.0000
vt 0.2760 0.9539 0.0000
vt 0.3400 0.9539 0.0000
# 216 texture coords

g Box001
f 1/1/1 2/2/1 3/3/1 
f 3/3/1 4/4/1 1/1/1 
f 4/4/1 3/3/1 5/5/1 
f 5/5/1 6/6/1 4/4/1 
f 6/6/1 5/5/1 7/7/1 
f 7/7/1 8/8/1 6/6/1 
f 8/8/1 7/7/1 9/9/1 
f 9/9/1 10/10/1 8/8/1 
f 10/10/1 9/9/1 11/11/1 
f 11/11/1 12/12/1 10/10/1 
f 2/2/1 13/13/1 14/14/1 
f 14/14/1 3/3/1 2/2/1 
f 3/3/1 14/14/1 15/15/1 
f 15/15/1 5/5/1 3/3/1 
f 5/5/1 15/15/1 16/16/1 
f 16/16/1 7/7/1 5/5/1 
f 7/7/1 16/16/1 17/17/1 
f 17/17/1 9/9/1 7/7/1 
f 9/9/1 17/17/1 18/18/1 
f 18/18/1 11/11/1 9/9/1 
f 13/13/1 19/19/1 20/20/1 
f 20/20/1 14/14/1 13/13/1 
f 14/14/1 20/20/1 21/21/1 
f 21/21/1 15/15/1 14/14/1 
f 15/15/1 21/21/1 22/22/1 
f 22/22/1 16/16/1 15/15/1 
f 16/16/1 22/22/1 23/23/1 
f 23/23/1 17/17/1 16/16/1 
f 17/17/1 23/23/1 24/24/1 
f 24/24/1 18/18/1 17/17/1 
f 19/19/1 25/25/1 26/26/1 
f 26/26/1 20/20/1 19/19/1 
f 20/20/1 26/26/1 27/27/1 
f 27/27/1 21/21/1 20/20/1 
f 21/21/1 27/27/1 28/28/1 
f 28/28/1 22/22/1 21/21/1 
f 22/22/1 28/28/1 29/29/1 
f 29/29/1 23/23/1 22/22/1 
f 23/23/1 29/29/1 30/30/1 
f 30/30/1 24/24/1 23/23/1 
f 25/25/1 31/31/1 32/32/1 
f 32/32/1 26/26/1 25/25/1 
f 26/26/1 32/32/1 33/33/1 
f 33/33/1 27/27/1 26/26/1 
f 27/27/1 33/33/1 34/34/1 
f 34/34/1 28/28/1 27/27/1 
f 28/28/1 34/34/1 35/35/1 
f 35/35/1 29/29/1 28/28/1 
f 29/29/1 35/35/1 36/36/1 
f 36/36/1 30/30/1 29/29/1 
f 37/37/2 38/38/2 39/39/2 
f 39/39/2 40/40/2 37/37/2 
f 38/38/2 41/41/2 42/42/2 
f 42/42/2 39/39/2 38/38/2 
f 41/41/2 43/43/2 44/44/2 
f 44/44/2 42/42/2 41/41/2 
f 43/43/2 45/45/2 46/46/2 
f 46/46/2 44/44/2 43/43/2 
f 45/45/2 47/47/2 48/48/2 
f 48/48/2 46/46/2 45/45/2 
f 40/40/2 39/39/2 49/49/2 
f 49/49/2 50/50/2 40/40/2 
f 39/39/2 42/42/2 51/51/2 
f 51/51/2 49/49/2 39/39/2 
f 42/42/2 44/44/2 52/52/2 
f 52/52/2 51/51/2 42/42/2 
f 44/44/2 46/46/2 53/53/2 
f 53/53/2 52/52/2 44/44/2 
f 46/46/2 48/48/2 54/54/2 
f 54/54/2 53/53/2 46/46/2 
f 50/50/2 49/49/2 55/55/2 
f 55/55/2 56/56/2 50/50/2 
f 49/49/2 51/51/2 57/57/2 
f 57/57/2 55/55/2 49/49/2 
f 51/51/2 52/52/2 58/58/2 
f 58/58/2 57/57/2 51/51/2 
f 52/52/2 53/53/2 59/59/2 
f 59/59/2 58/58/2 52/52/2 
f 53/53/2 54/54/2 60/60/2 
f 60/60/2 59/59/2 53/53/2 
f 56/56/2 55/55/2 61/61/2 
f 61/61/2 62/62/2 56/56/2 
f 55/55/2 57/57/2 63/63/2 
f 63/63/2 61/61/2 55/55/2 
f 57/57/2 58/58/2 64/64/2 
f 64/64/2 63/63/2 57/57/2 
f 58/58/2 59/59/2 65/65/2 
f 65/65/2 64/64/2 58/58/2 
f 59/59/2 60/60/2 66/66/2 
f 66/66/2 65/65/2 59/59/2 
f 62/62/2 61/61/2 67/67/2 
f 67/67/2 68/68/2 62/62/2 
f 61/61/2 63/63/2 69/69/2 
f 69/69/2 67/67/2 61/61/2 
f 63/63/2 64/64/2 70/70/2 
f 70/70/2 69/69/2 63/63/2 
f 64/64/2 65/65/2 71/71/2 
f 71/71/2 70/70/2 64/64/2 
f 65/65/2 66/66/2 72/72/2 
f 72/72/2 71/71/2 65/65/2 
f 1/73/3 4/74/3 73/75/3 
f 73/75/3 74/76/3 1/73/3 
f 4/74/3 6/77/3 75/78/3 
f 75/78/3 73/75/3 4/74/3 
f 6/77/3 8/79/3 76/80/3 
f 76/80/3 75/78/3 6/77/3 
f 8/79/3 10/81/3 77/82/3 
f 77/82/3 76/80/3 8/79/3 
f 10/81/3 12/83/3 78/84/3 
f 78/84/3 77/82/3 10/81/3 
f 74/76/3 73/75/3 79/85/3 
f 79/85/3 80/86/3 74/76/3 
f 73/75/3 75/78/3 81/87/3 
f 81/87/3 79/85/3 73/75/3 
f 75/78/3 76/80/3 82/88/3 
f 82/88/3 81/87/3 75/78/3 
f 76/80/3 77/82/3 83/89/3 
f 83/89/3 82/88/3 76/80/3 
f 77/82/3 78/84/3 84/90/3 
f 84/90/3 83/89/3 77/82/3 
f 80/86/3 79/85/3 85/91/3 
f 85/91/3 86/92/3 80/86/3 
f 79/85/3 81/87/3 87/93/3 
f 87/93/3 85/91/3 79/85/3 
f 81/87/3 82/88/3 88/94/3 
f 88/94/3 87/93/3 81/87/3 
f 82/88/3 83/89/3 89/95/3 
f 89/95/3 88/94/3 82/88/3 
f 83/89/3 84/90/3 90/96/3 
f 90/96/3 89/95/3 83/89/3 
f 86/92/3 85/91/3 91/97/3 
f 91/97/3 92/98/3 86/92/3 
f 85/91/3 87/93/3 93/99/3 
f 93/99/3 91/97/3 85/91/3 
f 87/93/3 88/94/3 94/100/3 
f 94/100/3 93/99/3 87/93/3 
f 88/94/3 89/95/3 95/101/3 
f 95/101/3 94/100/3 88/94/3 
f 89/95/3 90/96/3 96/102/3 
f 96/102/3 95/101/3 89/95/3 
f 92/98/3 91/97/3 38/103/3 
f 38/103/3 37/104/3 92/98/3 
f 91/97/3 93/99/3 41/105/3 
f 41/105/3 38/103/3 91/97/3 
f 93/99/3 94/100/3 43/106/3 
f 43/106/3 41/105/3 93/99/3 
f 94/100/3 95/101/3 45/107/3 
f 45/107/3 43/106/3 94/100/3 
f 95/101/3 96/102/3 47/108/3 
f 47/108/3 45/107/3 95/101/3 
f 12/109/4 11/110/4 97/111/4 
f 97/111/4 78/112/4 12/109/4 
f 11/110/4 18/113/4 98/114/4 
f 98/114/4 97/111/4 11/110/4 
f 18/113/4 24/115/4 99/116/4 
f 99/116/4 98/114/4 18/113/4 
f 24/115/4 30/117/4 100/118/4 
f 100/118/4 99/116/4 24/115/4 
f 30/117/4 36/119/4 101/120/4 
f 101/120/4 100/118/4 30/117/4 
f 78/112/4 97/111/4 102/121/4 
f 102/121/4 84/122/4 78/112/4 
f 97/111/4 98/114/4 103/123/4 
f 103/123/4 102/121/4 97/111/4 
f 98/114/4 99/116/4 104/124/4 
f 104/124/4 103/123/4 98/114/4 
f 99/116/4 100/118/4 105/125/4 
f 105/125/4 104/124/4 99/116/4 
f 100/118/4 101/120/4 106/126/4 
f 106/126/4 105/125/4 100/118/4 
f 84/122/4 102/121/4 107/127/4 
f 107/127/4 90/128/4 84/122/4 
f 102/121/4 103/123/4 108/129/4 
f 108/129/4 107/127/4 102/121/4 
f 103/123/4 104/124/4 109/130/4 
f 109/130/4 108/129/4 103/123/4 
f 104/124/4 105/125/4 110/131/4 
f 110/131/4 109/130/4 104/124/4 
f 105/125/4 106/126/4 111/132/4 
f 111/132/4 110/131/4 105/125/4 
f 90/128/4 107/127/4 112/133/5 
f 112/133/5 96/134/5 90/128/4 
f 107/127/4 108/129/4 113/135/5 
f 113/135/5 112/133/5 107/127/4 
f 108/129/4 109/130/4 114/136/5 
f 114/136/5 113/135/5 108/129/4 
f 109/130/4 110/131/4 115/137/5 
f 115/137/5 114/136/5 109/130/4 
f 110/131/4 111/132/4 116/138/5 
f 116/138/5 115/137/5 110/131/4 
f 96/134/5 112/133/5 48/139/5 
f 48/139/5 47/140/5 96/134/5 
f 112/133/5 113/135/5 54/141/5 
f 54/141/5 48/139/5 112/133/5 
f 113/135/5 114/136/5 60/142/5 
f 60/142/5 54/141/5 113/135/5 
f 114/136/5 115/137/5 66/143/5 
f 66/143/5 60/142/5 114/136/5 
f 115/137/5 116/138/5 72/144/5 
f 72/144/5 66/143/5 115/137/5 
f 36/145/6 35/146/6 117/147/6 
f 117/147/6 101/148/6 36/145/6 
f 35/146/6 34/149/6 118/150/6 
f 118/150/6 117/147/6 35/146/6 
f 34/149/6 33/151/6 119/152/6 
f 119/152/6 118/150/6 34/149/6 
f 33/151/6 32/153/6 120/154/6 
f 120/154/6 119/152/6 33/151/6 
f 32/153/6 31/155/6 121/156/6 
f 121/156/6 120/154/6 32/153/6 
f 101/148/6 117/147/6 122/157/6 
f 122/157/6 106/158/6 101/148/6 
f 117/147/6 118/150/6 123/159/6 
f 123/159/6 122/157/6 117/147/6 
f 118/150/6 119/152/6 124/160/6 
f 124/160/6 123/159/6 118/150/6 
f 119/152/6 120/154/6 125/161/6 
f 125/161/6 124/160/6 119/152/6 
f 120/154/6 121/156/6 126/162/6 
f 126/162/6 125/161/6 120/154/6 
f 106/158/6 122/157/6 127/163/6 
f 127/163/6 111/164/6 106/158/6 
f 122/157/6 123/159/6 128/165/6 
f 128/165/6 127/163/6 122/157/6 
f 123/159/6 124/160/6 129/166/6 
f 129/166/6 128/165/6 123/159/6 
f 124/160/6 125/161/6 130/167/6 
f 130/167/6 129/166/6 124/160/6 
f 125/161/6 126/162/6 131/168/6 
f 131/168/6 130/167/6 125/161/6 
f 111/164/6 127/163/6 132/169/6 
f 132/169/6 116/170/6 111/164/6 
f 127/163/6 128/165/6 133/171/6 
f 133/171/6 132/169/6 127/163/6 
f 128/165/6 129/166/6 134/172/6 
f 134/172/6 133/171/6 128/165/6 
f 129/166/6 130/167/6 135/173/6 
f 135/173/6 134/172/6 129/166/6 
f 130/167/6 131/168/6 136/174/6 
f 136/174/6 135/173/6 130/167/6 
f 116/170/6 132/169/6 71/175/6 
f 71/175/6 72/176/6 116/170/6 
f 132/169/6 133/171/6 70/177/6 
f 70/177/6 71/175/6 132/169/6 
f 133/171/6 134/172/6 69/178/6 
f 69/178/6 70/177/6 133/171/6 
f 134/172/6 135/173/6 67/179/6 
f 67/179/6 69/178/6 134/172/6 
f 135/173/6 136/174/6 68/180/6 
f 68/180/6 67/179/6 135/173/6 
f 31/181/7 25/182/7 137/183/7 
f 137/183/7 121/184/7 31/181/7 
f 25/182/7 19/185/7 138/186/7 
f 138/186/7 137/183/7 25/182/7 
f 19/185/7 13/187/7 139/188/7 
f 139/188/7 138/186/7 19/185/7 
f 13/187/7 2/189/7 140/190/7 
f 140/190/7 139/188/7 13/187/7 
f 2/189/7 1/191/7 74/192/7 
f 74/192/7 140/190/7 2/189/7 
f 121/184/7 137/183/7 141/193/7 
f 141/193/7 126/194/7 121/184/7 
f 137/183/7 138/186/7 142/195/7 
f 142/195/7 141/193/7 137/183/7 
f 138/186/7 139/188/7 143/196/7 
f 143/196/7 142/195/7 138/186/7 
f 139/188/7 140/190/7 144/197/7 
f 144/197/7 143/196/7 139/188/7 
f 140/190/7 74/192/7 80/198/7 
f 80/198/7 144/197/7 140/190/7 
f 126/194/7 141/193/7 145/199/7 
f 145/199/7 131/200/7 126/194/7 
f 141/193/7 142/195/7 146/201/7 
f 146/201/7 145/199/7 141/193/7 
f 142/195/7 143/196/7 147/202/7 
f 147/202/7 146/201/7 142/195/7 
f 143/196/7 144/197/7 148/203/7 
f 148/203/7 147/202/7 143/196/7 
f 144/197/7 80/198/7 86/204/7 
f 86/204/7 148/203/7 144/197/7 
f 131/200/7 145/199/7 149/205/7 
f 149/205/7 136/206/7 131/200/7 
f 145/199/7 146/201/7 150/207/7 
f 150/207/7 149/205/7 145/199/7 
f 146/201/7 147/202/7 151/208/7 
f 151/208/7 150/207/7 146/201/7 
f 147/202/7 148/203/7 152/209/7 
f 152/209/7 151/208/7 147/202/7 
f 148/203/7 86/204/7 92/210/7 
f 92/210/7 152/209/7 148/203/7 
f 136/206/7 149/205/7 62/211/7 
f 62/211/7 68/212/7 136/206/7 
f 149/205/7 150/207/7 56/213/7 
f 56/213/7 62/211/7 149/205/7 
f 150/207/7 151/208/7 50/214/7 
f 50/214/7 56/213/7 150/207/7 
f 151/208/7 152/209/7 40/215/7 
f 40/215/7 50/214/7 151/208/7 
f 152/209/7 92/210/7 37/216/7 
f 37/216/7 40/215/7 152/209/7 
# 300 faces

