# 3ds Max Wavefront OBJ Exporter v0.97b - (c)2007 guruware
# File Created: 29.05.2019 12:36:47

#
# object Box003
#

v  -3.6212 -8.6256 12.9503
v  -3.6212 -8.6256 7.7702
v  -2.1727 -8.6256 7.7702
v  -2.1727 -8.6256 12.9503
v  -0.7242 -8.6256 7.7702
v  -0.7242 -8.6256 12.9503
v  0.7242 -8.6256 7.7702
v  0.7242 -8.6256 12.9503
v  2.1727 -8.6256 7.7702
v  2.1727 -8.6256 12.9503
v  3.6212 -8.6256 7.7702
v  3.6212 -8.6256 12.9503
v  -3.6212 -8.6256 2.5901
v  -2.1727 -8.6256 2.5901
v  -0.7242 -8.6256 2.5901
v  0.7242 -8.6256 2.5901
v  2.1727 -8.6256 2.5901
v  3.6212 -8.6256 2.5901
v  -3.6212 -8.6256 -2.5901
v  -2.1727 -8.6256 -2.5901
v  -0.7242 -8.6256 -2.5901
v  0.7242 -8.6256 -2.5901
v  2.1727 -8.6256 -2.5901
v  3.6212 -8.6256 -2.5901
v  -3.6212 -8.6256 -7.7702
v  -2.1727 -8.6256 -7.7702
v  -0.7242 -8.6256 -7.7702
v  0.7242 -8.6256 -7.7702
v  2.1727 -8.6256 -7.7702
v  3.6212 -8.6256 -7.7702
v  -3.6212 -8.6256 -12.9503
v  -2.1727 -8.6256 -12.9503
v  -0.7242 -8.6256 -12.9503
v  0.7242 -8.6256 -12.9503
v  2.1727 -8.6256 -12.9503
v  3.6212 -8.6256 -12.9503
v  -3.6212 10.7600 12.9503
v  -2.1727 10.7600 12.9503
v  -2.1727 10.7600 7.7702
v  -3.6212 10.7600 7.7702
v  -0.7242 10.7600 12.9503
v  -0.7242 10.7600 7.7702
v  0.7242 10.7600 12.9503
v  0.7242 10.7600 7.7702
v  2.1727 10.7600 12.9503
v  2.1727 10.7600 7.7702
v  3.6212 10.7600 12.9503
v  3.6212 10.7600 7.7702
v  -2.1727 10.7600 2.5901
v  -3.6212 10.7600 2.5901
v  -0.7242 10.7600 2.5901
v  0.7242 10.7600 2.5901
v  2.1727 10.7600 2.5901
v  3.6212 10.7600 2.5901
v  -2.1727 10.7600 -2.5901
v  -3.6212 10.7600 -2.5901
v  -0.7242 10.7600 -2.5901
v  0.7242 10.7600 -2.5901
v  2.1727 10.7600 -2.5901
v  3.6212 10.7600 -2.5901
v  -2.1727 10.7600 -7.7702
v  -3.6212 10.7600 -7.7702
v  -0.7242 10.7600 -7.7702
v  0.7242 10.7600 -7.7702
v  2.1727 10.7600 -7.7702
v  3.6212 10.7600 -7.7702
v  -2.1727 10.7600 -12.9503
v  -3.6212 10.7600 -12.9503
v  -0.7242 10.7600 -12.9503
v  0.7242 10.7600 -12.9503
v  2.1727 10.7600 -12.9503
v  3.6212 10.7600 -12.9503
v  -2.1727 -4.7485 12.9503
v  -3.6212 -4.7485 12.9503
v  -0.7242 -4.7485 12.9503
v  0.7242 -4.7485 12.9503
v  2.1727 -4.7485 12.9503
v  3.6212 -4.7485 12.9503
v  -2.1727 -0.8714 12.9503
v  -3.6212 -0.8714 12.9503
v  -0.7242 -0.8714 12.9503
v  0.7242 -0.8714 12.9503
v  2.1727 -0.8714 12.9503
v  3.6212 -0.8714 12.9503
v  -2.1727 3.0057 12.9503
v  -3.6212 3.0057 12.9503
v  -0.7242 3.0057 12.9503
v  0.7242 3.0057 12.9503
v  2.1727 3.0057 12.9503
v  3.6212 3.0057 12.9503
v  -2.1727 6.8829 12.9503
v  -3.6212 6.8829 12.9503
v  -0.7242 6.8829 12.9503
v  0.7242 6.8829 12.9503
v  2.1727 6.8829 12.9503
v  3.6212 6.8829 12.9503
v  3.6212 -4.7485 7.7702
v  3.6212 -4.7485 2.5901
v  3.6212 -4.7485 -2.5901
v  3.6212 -4.7485 -7.7702
v  3.6212 -4.7485 -12.9503
v  3.6212 -0.8714 7.7702
v  3.6212 -0.8714 2.5901
v  3.6212 -0.8714 -2.5901
v  3.6212 -0.8714 -7.7702
v  3.6212 -0.8714 -12.9503
v  3.6212 3.0057 7.7702
v  3.6212 3.0057 2.5901
v  3.6212 3.0057 -2.5901
v  3.6212 3.0057 -7.7702
v  3.6212 3.0057 -12.9503
v  3.6212 6.8829 7.7702
v  3.6212 6.8829 2.5901
v  3.6212 6.8829 -2.5901
v  3.6212 6.8829 -7.7702
v  3.6212 6.8829 -12.9503
v  2.1727 -4.7485 -12.9503
v  0.7242 -4.7485 -12.9503
v  -0.7242 -4.7485 -12.9503
v  -2.1727 -4.7485 -12.9503
v  -3.6212 -4.7485 -12.9503
v  2.1727 -0.8714 -12.9503
v  0.7242 -0.8714 -12.9503
v  -0.7242 -0.8714 -12.9503
v  -2.1727 -0.8714 -12.9503
v  -3.6212 -0.8714 -12.9503
v  2.1727 3.0057 -12.9503
v  0.7242 3.0057 -12.9503
v  -0.7242 3.0057 -12.9503
v  -2.1727 3.0057 -12.9503
v  -3.6212 3.0057 -12.9503
v  2.1727 6.8829 -12.9503
v  0.7242 6.8829 -12.9503
v  -0.7242 6.8829 -12.9503
v  -2.1727 6.8829 -12.9503
v  -3.6212 6.8829 -12.9503
v  -3.6212 -4.7485 -7.7702
v  -3.6212 -4.7485 -2.5901
v  -3.6212 -4.7485 2.5901
v  -3.6212 -4.7485 7.7702
v  -3.6212 -0.8714 -7.7702
v  -3.6212 -0.8714 -2.5901
v  -3.6212 -0.8714 2.5901
v  -3.6212 -0.8714 7.7702
v  -3.6212 3.0057 -7.7702
v  -3.6212 3.0057 -2.5901
v  -3.6212 3.0057 2.5901
v  -3.6212 3.0057 7.7702
v  -3.6212 6.8829 -7.7702
v  -3.6212 6.8829 -2.5901
v  -3.6212 6.8829 2.5901
v  -3.6212 6.8829 7.7702
# 152 vertices

vn 0.0000 -1.0000 -0.0000
vn 0.0000 1.0000 -0.0000
vn 0.0000 0.0000 1.0000
vn 1.0000 0.0000 -0.0000
vn 0.0000 0.0000 -1.0000
vn -1.0000 0.0000 -0.0000
# 6 vertex normals

vt 1.0000 0.0000 0.0000
vt 1.0000 5.4000 0.0000
vt -1.0000 5.4000 0.0000
vt -1.0000 0.0000 0.0000
vt -3.0000 5.4000 0.0000
vt -3.0000 0.0000 0.0000
vt -5.0000 5.4000 0.0000
vt -5.0000 0.0000 0.0000
vt -7.0000 5.4000 0.0000
vt -7.0000 0.0000 0.0000
vt -9.0000 5.4000 0.0000
vt -9.0000 0.0000 0.0000
vt 1.0000 10.8000 0.0000
vt -1.0000 10.8000 0.0000
vt -3.0000 10.8000 0.0000
vt -5.0000 10.8000 0.0000
vt -7.0000 10.8000 0.0000
vt -9.0000 10.8000 0.0000
vt 1.0000 16.2000 0.0000
vt -1.0000 16.2000 0.0000
vt -3.0000 16.2000 0.0000
vt -5.0000 16.2000 0.0000
vt -7.0000 16.2000 0.0000
vt -9.0000 16.2000 0.0000
vt 1.0000 21.6000 0.0000
vt -1.0000 21.6000 0.0000
vt -3.0000 21.6000 0.0000
vt -5.0000 21.6000 0.0000
vt -7.0000 21.6000 0.0000
vt -9.0000 21.6000 0.0000
vt 1.0000 27.0000 0.0000
vt -1.0000 27.0000 0.0000
vt -3.0000 27.0000 0.0000
vt -5.0000 27.0000 0.0000
vt -7.0000 27.0000 0.0000
vt -9.0000 27.0000 0.0000
vt 0.0000 0.0000 0.0000
vt 2.0000 0.0000 0.0000
vt 2.0000 5.4000 0.0000
vt 0.0000 5.4000 0.0000
vt 4.0000 0.0000 0.0000
vt 4.0000 5.4000 0.0000
vt 6.0000 0.0000 0.0000
vt 6.0000 5.4000 0.0000
vt 8.0000 0.0000 0.0000
vt 8.0000 5.4000 0.0000
vt 10.0000 0.0000 0.0000
vt 10.0000 5.4000 0.0000
vt 2.0000 10.8000 0.0000
vt 0.0000 10.8000 0.0000
vt 4.0000 10.8000 0.0000
vt 6.0000 10.8000 0.0000
vt 8.0000 10.8000 0.0000
vt 10.0000 10.8000 0.0000
vt 2.0000 16.2000 0.0000
vt 0.0000 16.2000 0.0000
vt 4.0000 16.2000 0.0000
vt 6.0000 16.2000 0.0000
vt 8.0000 16.2000 0.0000
vt 10.0000 16.2000 0.0000
vt 2.0000 21.6000 0.0000
vt 0.0000 21.6000 0.0000
vt 4.0000 21.6000 0.0000
vt 6.0000 21.6000 0.0000
vt 8.0000 21.6000 0.0000
vt 10.0000 21.6000 0.0000
vt 2.0000 27.0000 0.0000
vt 0.0000 27.0000 0.0000
vt 4.0000 27.0000 0.0000
vt 6.0000 27.0000 0.0000
vt 8.0000 27.0000 0.0000
vt 10.0000 27.0000 0.0000
vt 2.0000 4.4000 0.0000
vt 0.0000 4.4000 0.0000
vt 4.0000 4.4000 0.0000
vt 6.0000 4.4000 0.0000
vt 8.0000 4.4000 0.0000
vt 10.0000 4.4000 0.0000
vt 2.0000 8.8000 0.0000
vt 0.0000 8.8000 0.0000
vt 4.0000 8.8000 0.0000
vt 6.0000 8.8000 0.0000
vt 8.0000 8.8000 0.0000
vt 10.0000 8.8000 0.0000
vt 2.0000 13.2000 0.0000
vt 0.0000 13.2000 0.0000
vt 4.0000 13.2000 0.0000
vt 6.0000 13.2000 0.0000
vt 8.0000 13.2000 0.0000
vt 10.0000 13.2000 0.0000
vt 2.0000 17.6000 0.0000
vt 0.0000 17.6000 0.0000
vt 4.0000 17.6000 0.0000
vt 6.0000 17.6000 0.0000
vt 8.0000 17.6000 0.0000
vt 10.0000 17.6000 0.0000
vt 2.0000 22.0000 0.0000
vt 0.0000 22.0000 0.0000
vt 4.0000 22.0000 0.0000
vt 6.0000 22.0000 0.0000
vt 8.0000 22.0000 0.0000
vt 10.0000 22.0000 0.0000
vt 5.4000 0.0000 0.0000
vt 5.4000 4.4000 0.0000
vt 10.8000 0.0000 0.0000
vt 10.8000 4.4000 0.0000
vt 16.2000 0.0000 0.0000
vt 16.2000 4.4000 0.0000
vt 21.6000 0.0000 0.0000
vt 21.6000 4.4000 0.0000
vt 27.0000 0.0000 0.0000
vt 27.0000 4.4000 0.0000
vt 5.4000 8.8000 0.0000
vt 10.8000 8.8000 0.0000
vt 16.2000 8.8000 0.0000
vt 21.6000 8.8000 0.0000
vt 27.0000 8.8000 0.0000
vt 5.4000 13.2000 0.0000
vt 10.8000 13.2000 0.0000
vt 16.2000 13.2000 0.0000
vt 21.6000 13.2000 0.0000
vt 27.0000 13.2000 0.0000
vt 5.4000 17.6000 0.0000
vt 10.8000 17.6000 0.0000
vt 16.2000 17.6000 0.0000
vt 21.6000 17.6000 0.0000
vt 27.0000 17.6000 0.0000
vt 5.4000 22.0000 0.0000
vt 10.8000 22.0000 0.0000
vt 16.2000 22.0000 0.0000
vt 21.6000 22.0000 0.0000
vt 27.0000 22.0000 0.0000
# 132 texture coords

g Box003
f 1/1/1 2/2/1 3/3/1 
f 3/3/1 4/4/1 1/1/1 
f 4/4/1 3/3/1 5/5/1 
f 5/5/1 6/6/1 4/4/1 
f 6/6/1 5/5/1 7/7/1 
f 7/7/1 8/8/1 6/6/1 
f 8/8/1 7/7/1 9/9/1 
f 9/9/1 10/10/1 8/8/1 
f 10/10/1 9/9/1 11/11/1 
f 11/11/1 12/12/1 10/10/1 
f 2/2/1 13/13/1 14/14/1 
f 14/14/1 3/3/1 2/2/1 
f 3/3/1 14/14/1 15/15/1 
f 15/15/1 5/5/1 3/3/1 
f 5/5/1 15/15/1 16/16/1 
f 16/16/1 7/7/1 5/5/1 
f 7/7/1 16/16/1 17/17/1 
f 17/17/1 9/9/1 7/7/1 
f 9/9/1 17/17/1 18/18/1 
f 18/18/1 11/11/1 9/9/1 
f 13/13/1 19/19/1 20/20/1 
f 20/20/1 14/14/1 13/13/1 
f 14/14/1 20/20/1 21/21/1 
f 21/21/1 15/15/1 14/14/1 
f 15/15/1 21/21/1 22/22/1 
f 22/22/1 16/16/1 15/15/1 
f 16/16/1 22/22/1 23/23/1 
f 23/23/1 17/17/1 16/16/1 
f 17/17/1 23/23/1 24/24/1 
f 24/24/1 18/18/1 17/17/1 
f 19/19/1 25/25/1 26/26/1 
f 26/26/1 20/20/1 19/19/1 
f 20/20/1 26/26/1 27/27/1 
f 27/27/1 21/21/1 20/20/1 
f 21/21/1 27/27/1 28/28/1 
f 28/28/1 22/22/1 21/21/1 
f 22/22/1 28/28/1 29/29/1 
f 29/29/1 23/23/1 22/22/1 
f 23/23/1 29/29/1 30/30/1 
f 30/30/1 24/24/1 23/23/1 
f 25/25/1 31/31/1 32/32/1 
f 32/32/1 26/26/1 25/25/1 
f 26/26/1 32/32/1 33/33/1 
f 33/33/1 27/27/1 26/26/1 
f 27/27/1 33/33/1 34/34/1 
f 34/34/1 28/28/1 27/27/1 
f 28/28/1 34/34/1 35/35/1 
f 35/35/1 29/29/1 28/28/1 
f 29/29/1 35/35/1 36/36/1 
f 36/36/1 30/30/1 29/29/1 
f 37/37/2 38/38/2 39/39/2 
f 39/39/2 40/40/2 37/37/2 
f 38/38/2 41/41/2 42/42/2 
f 42/42/2 39/39/2 38/38/2 
f 41/41/2 43/43/2 44/44/2 
f 44/44/2 42/42/2 41/41/2 
f 43/43/2 45/45/2 46/46/2 
f 46/46/2 44/44/2 43/43/2 
f 45/45/2 47/47/2 48/48/2 
f 48/48/2 46/46/2 45/45/2 
f 40/40/2 39/39/2 49/49/2 
f 49/49/2 50/50/2 40/40/2 
f 39/39/2 42/42/2 51/51/2 
f 51/51/2 49/49/2 39/39/2 
f 42/42/2 44/44/2 52/52/2 
f 52/52/2 51/51/2 42/42/2 
f 44/44/2 46/46/2 53/53/2 
f 53/53/2 52/52/2 44/44/2 
f 46/46/2 48/48/2 54/54/2 
f 54/54/2 53/53/2 46/46/2 
f 50/50/2 49/49/2 55/55/2 
f 55/55/2 56/56/2 50/50/2 
f 49/49/2 51/51/2 57/57/2 
f 57/57/2 55/55/2 49/49/2 
f 51/51/2 52/52/2 58/58/2 
f 58/58/2 57/57/2 51/51/2 
f 52/52/2 53/53/2 59/59/2 
f 59/59/2 58/58/2 52/52/2 
f 53/53/2 54/54/2 60/60/2 
f 60/60/2 59/59/2 53/53/2 
f 56/56/2 55/55/2 61/61/2 
f 61/61/2 62/62/2 56/56/2 
f 55/55/2 57/57/2 63/63/2 
f 63/63/2 61/61/2 55/55/2 
f 57/57/2 58/58/2 64/64/2 
f 64/64/2 63/63/2 57/57/2 
f 58/58/2 59/59/2 65/65/2 
f 65/65/2 64/64/2 58/58/2 
f 59/59/2 60/60/2 66/66/2 
f 66/66/2 65/65/2 59/59/2 
f 62/62/2 61/61/2 67/67/2 
f 67/67/2 68/68/2 62/62/2 
f 61/61/2 63/63/2 69/69/2 
f 69/69/2 67/67/2 61/61/2 
f 63/63/2 64/64/2 70/70/2 
f 70/70/2 69/69/2 63/63/2 
f 64/64/2 65/65/2 71/71/2 
f 71/71/2 70/70/2 64/64/2 
f 65/65/2 66/66/2 72/72/2 
f 72/72/2 71/71/2 65/65/2 
f 1/37/3 4/38/3 73/73/3 
f 73/73/3 74/74/3 1/37/3 
f 4/38/3 6/41/3 75/75/3 
f 75/75/3 73/73/3 4/38/3 
f 6/41/3 8/43/3 76/76/3 
f 76/76/3 75/75/3 6/41/3 
f 8/43/3 10/45/3 77/77/3 
f 77/77/3 76/76/3 8/43/3 
f 10/45/3 12/47/3 78/78/3 
f 78/78/3 77/77/3 10/45/3 
f 74/74/3 73/73/3 79/79/3 
f 79/79/3 80/80/3 74/74/3 
f 73/73/3 75/75/3 81/81/3 
f 81/81/3 79/79/3 73/73/3 
f 75/75/3 76/76/3 82/82/3 
f 82/82/3 81/81/3 75/75/3 
f 76/76/3 77/77/3 83/83/3 
f 83/83/3 82/82/3 76/76/3 
f 77/77/3 78/78/3 84/84/3 
f 84/84/3 83/83/3 77/77/3 
f 80/80/3 79/79/3 85/85/3 
f 85/85/3 86/86/3 80/80/3 
f 79/79/3 81/81/3 87/87/3 
f 87/87/3 85/85/3 79/79/3 
f 81/81/3 82/82/3 88/88/3 
f 88/88/3 87/87/3 81/81/3 
f 82/82/3 83/83/3 89/89/3 
f 89/89/3 88/88/3 82/82/3 
f 83/83/3 84/84/3 90/90/3 
f 90/90/3 89/89/3 83/83/3 
f 86/86/3 85/85/3 91/91/3 
f 91/91/3 92/92/3 86/86/3 
f 85/85/3 87/87/3 93/93/3 
f 93/93/3 91/91/3 85/85/3 
f 87/87/3 88/88/3 94/94/3 
f 94/94/3 93/93/3 87/87/3 
f 88/88/3 89/89/3 95/95/3 
f 95/95/3 94/94/3 88/88/3 
f 89/89/3 90/90/3 96/96/3 
f 96/96/3 95/95/3 89/89/3 
f 92/92/3 91/91/3 38/97/3 
f 38/97/3 37/98/3 92/92/3 
f 91/91/3 93/93/3 41/99/3 
f 41/99/3 38/97/3 91/91/3 
f 93/93/3 94/94/3 43/100/3 
f 43/100/3 41/99/3 93/93/3 
f 94/94/3 95/95/3 45/101/3 
f 45/101/3 43/100/3 94/94/3 
f 95/95/3 96/96/3 47/102/3 
f 47/102/3 45/101/3 95/95/3 
f 12/37/4 11/103/4 97/104/4 
f 97/104/4 78/74/4 12/37/4 
f 11/103/4 18/105/4 98/106/4 
f 98/106/4 97/104/4 11/103/4 
f 18/105/4 24/107/4 99/108/4 
f 99/108/4 98/106/4 18/105/4 
f 24/107/4 30/109/4 100/110/4 
f 100/110/4 99/108/4 24/107/4 
f 30/109/4 36/111/4 101/112/4 
f 101/112/4 100/110/4 30/109/4 
f 78/74/4 97/104/4 102/113/4 
f 102/113/4 84/80/4 78/74/4 
f 97/104/4 98/106/4 103/114/4 
f 103/114/4 102/113/4 97/104/4 
f 98/106/4 99/108/4 104/115/4 
f 104/115/4 103/114/4 98/106/4 
f 99/108/4 100/110/4 105/116/4 
f 105/116/4 104/115/4 99/108/4 
f 100/110/4 101/112/4 106/117/4 
f 106/117/4 105/116/4 100/110/4 
f 84/80/4 102/113/4 107/118/4 
f 107/118/4 90/86/4 84/80/4 
f 102/113/4 103/114/4 108/119/4 
f 108/119/4 107/118/4 102/113/4 
f 103/114/4 104/115/4 109/120/4 
f 109/120/4 108/119/4 103/114/4 
f 104/115/4 105/116/4 110/121/4 
f 110/121/4 109/120/4 104/115/4 
f 105/116/4 106/117/4 111/122/4 
f 111/122/4 110/121/4 105/116/4 
f 90/86/4 107/118/4 112/123/4 
f 112/123/4 96/92/4 90/86/4 
f 107/118/4 108/119/4 113/124/4 
f 113/124/4 112/123/4 107/118/4 
f 108/119/4 109/120/4 114/125/4 
f 114/125/4 113/124/4 108/119/4 
f 109/120/4 110/121/4 115/126/4 
f 115/126/4 114/125/4 109/120/4 
f 110/121/4 111/122/4 116/127/4 
f 116/127/4 115/126/4 110/121/4 
f 96/92/4 112/123/4 48/128/4 
f 48/128/4 47/98/4 96/92/4 
f 112/123/4 113/124/4 54/129/4 
f 54/129/4 48/128/4 112/123/4 
f 113/124/4 114/125/4 60/130/4 
f 60/130/4 54/129/4 113/124/4 
f 114/125/4 115/126/4 66/131/4 
f 66/131/4 60/130/4 114/125/4 
f 115/126/4 116/127/4 72/132/4 
f 72/132/4 66/131/4 115/126/4 
f 36/37/5 35/38/5 117/73/5 
f 117/73/5 101/74/5 36/37/5 
f 35/38/5 34/41/5 118/75/5 
f 118/75/5 117/73/5 35/38/5 
f 34/41/5 33/43/5 119/76/5 
f 119/76/5 118/75/5 34/41/5 
f 33/43/5 32/45/5 120/77/5 
f 120/77/5 119/76/5 33/43/5 
f 32/45/5 31/47/5 121/78/5 
f 121/78/5 120/77/5 32/45/5 
f 101/74/5 117/73/5 122/79/5 
f 122/79/5 106/80/5 101/74/5 
f 117/73/5 118/75/5 123/81/5 
f 123/81/5 122/79/5 117/73/5 
f 118/75/5 119/76/5 124/82/5 
f 124/82/5 123/81/5 118/75/5 
f 119/76/5 120/77/5 125/83/5 
f 125/83/5 124/82/5 119/76/5 
f 120/77/5 121/78/5 126/84/5 
f 126/84/5 125/83/5 120/77/5 
f 106/80/5 122/79/5 127/85/5 
f 127/85/5 111/86/5 106/80/5 
f 122/79/5 123/81/5 128/87/5 
f 128/87/5 127/85/5 122/79/5 
f 123/81/5 124/82/5 129/88/5 
f 129/88/5 128/87/5 123/81/5 
f 124/82/5 125/83/5 130/89/5 
f 130/89/5 129/88/5 124/82/5 
f 125/83/5 126/84/5 131/90/5 
f 131/90/5 130/89/5 125/83/5 
f 111/86/5 127/85/5 132/91/5 
f 132/91/5 116/92/5 111/86/5 
f 127/85/5 128/87/5 133/93/5 
f 133/93/5 132/91/5 127/85/5 
f 128/87/5 129/88/5 134/94/5 
f 134/94/5 133/93/5 128/87/5 
f 129/88/5 130/89/5 135/95/5 
f 135/95/5 134/94/5 129/88/5 
f 130/89/5 131/90/5 136/96/5 
f 136/96/5 135/95/5 130/89/5 
f 116/92/5 132/91/5 71/97/5 
f 71/97/5 72/98/5 116/92/5 
f 132/91/5 133/93/5 70/99/5 
f 70/99/5 71/97/5 132/91/5 
f 133/93/5 134/94/5 69/100/5 
f 69/100/5 70/99/5 133/93/5 
f 134/94/5 135/95/5 67/101/5 
f 67/101/5 69/100/5 134/94/5 
f 135/95/5 136/96/5 68/102/5 
f 68/102/5 67/101/5 135/95/5 
f 31/37/6 25/103/6 137/104/6 
f 137/104/6 121/74/6 31/37/6 
f 25/103/6 19/105/6 138/106/6 
f 138/106/6 137/104/6 25/103/6 
f 19/105/6 13/107/6 139/108/6 
f 139/108/6 138/106/6 19/105/6 
f 13/107/6 2/109/6 140/110/6 
f 140/110/6 139/108/6 13/107/6 
f 2/109/6 1/111/6 74/112/6 
f 74/112/6 140/110/6 2/109/6 
f 121/74/6 137/104/6 141/113/6 
f 141/113/6 126/80/6 121/74/6 
f 137/104/6 138/106/6 142/114/6 
f 142/114/6 141/113/6 137/104/6 
f 138/106/6 139/108/6 143/115/6 
f 143/115/6 142/114/6 138/106/6 
f 139/108/6 140/110/6 144/116/6 
f 144/116/6 143/115/6 139/108/6 
f 140/110/6 74/112/6 80/117/6 
f 80/117/6 144/116/6 140/110/6 
f 126/80/6 141/113/6 145/118/6 
f 145/118/6 131/86/6 126/80/6 
f 141/113/6 142/114/6 146/119/6 
f 146/119/6 145/118/6 141/113/6 
f 142/114/6 143/115/6 147/120/6 
f 147/120/6 146/119/6 142/114/6 
f 143/115/6 144/116/6 148/121/6 
f 148/121/6 147/120/6 143/115/6 
f 144/116/6 80/117/6 86/122/6 
f 86/122/6 148/121/6 144/116/6 
f 131/86/6 145/118/6 149/123/6 
f 149/123/6 136/92/6 131/86/6 
f 145/118/6 146/119/6 150/124/6 
f 150/124/6 149/123/6 145/118/6 
f 146/119/6 147/120/6 151/125/6 
f 151/125/6 150/124/6 146/119/6 
f 147/120/6 148/121/6 152/126/6 
f 152/126/6 151/125/6 147/120/6 
f 148/121/6 86/122/6 92/127/6 
f 92/127/6 152/126/6 148/121/6 
f 136/92/6 149/123/6 62/128/6 
f 62/128/6 68/98/6 136/92/6 
f 149/123/6 150/124/6 56/129/6 
f 56/129/6 62/128/6 149/123/6 
f 150/124/6 151/125/6 50/130/6 
f 50/130/6 56/129/6 150/124/6 
f 151/125/6 152/126/6 40/131/6 
f 40/131/6 50/130/6 151/125/6 
f 152/126/6 92/127/6 37/132/6 
f 37/132/6 40/131/6 152/126/6 
# 300 faces

