# 3ds Max Wavefront OBJ Exporter v0.97b - (c)2007 guruware
# File Created: 29.05.2019 11:17:15

#
# object Box001
#

v  -25.0000 -3.0000 35.0000
v  -25.0000 -3.0000 23.3333
v  -15.0000 -3.0000 23.3333
v  -15.0000 -3.0000 35.0000
v  -5.0000 -3.0000 23.3333
v  -5.0000 -3.0000 35.0000
v  5.0000 -3.0000 23.3333
v  5.0000 -3.0000 35.0000
v  15.0000 -3.0000 23.3333
v  15.0000 -3.0000 35.0000
v  25.0000 -3.0000 23.3333
v  25.0000 -3.0000 35.0000
v  -25.0000 -3.0000 11.6667
v  -15.0000 -3.0000 11.6667
v  -5.0000 -3.0000 11.6667
v  5.0000 -3.0000 11.6667
v  15.0000 -3.0000 11.6667
v  25.0000 -3.0000 11.6667
v  -25.0000 -3.0000 -0.0000
v  -15.0000 -3.0000 -0.0000
v  -5.0000 -3.0000 -0.0000
v  5.0000 -3.0000 -0.0000
v  15.0000 -3.0000 -0.0000
v  25.0000 -3.0000 -0.0000
v  -25.0000 -3.0000 -11.6667
v  -15.0000 -3.0000 -11.6667
v  -5.0000 -3.0000 -11.6667
v  5.0000 -3.0000 -11.6667
v  15.0000 -3.0000 -11.6667
v  25.0000 -3.0000 -11.6667
v  -25.0000 -3.0000 -23.3333
v  -15.0000 -3.0000 -23.3333
v  -5.0000 -3.0000 -23.3333
v  5.0000 -3.0000 -23.3333
v  15.0000 -3.0000 -23.3333
v  25.0000 -3.0000 -23.3333
v  -25.0000 -3.0000 -35.0000
v  -15.0000 -3.0000 -35.0000
v  -5.0000 -3.0000 -35.0000
v  5.0000 -3.0000 -35.0000
v  15.0000 -3.0000 -35.0000
v  25.0000 -3.0000 -35.0000
v  -25.0000 0.0000 35.0000
v  -15.0000 0.0000 35.0000
v  -15.0000 0.0000 23.3333
v  -25.0000 0.0000 23.3333
v  -5.0000 0.0000 35.0000
v  -5.0000 0.0000 23.3333
v  5.0000 0.0000 35.0000
v  15.0000 0.0000 35.0000
v  15.0000 0.0000 23.3333
v  5.0000 0.0000 23.3333
v  25.0000 0.0000 35.0000
v  25.0000 0.0000 23.3333
v  -15.0000 0.0000 11.6667
v  -25.0000 0.0000 11.6667
v  -5.0000 0.0000 11.6667
v  15.0000 0.0000 11.6667
v  5.0000 0.0000 11.6667
v  25.0000 0.0000 11.6667
v  -15.0000 0.0000 -0.0000
v  -25.0000 0.0000 -0.0000
v  -5.0000 0.0000 -0.0000
v  5.0000 0.0000 -0.0000
v  15.0000 0.0000 -0.0000
v  25.0000 0.0000 -0.0000
v  -15.0000 0.0000 -11.6667
v  -25.0000 0.0000 -11.6667
v  -5.0000 0.0000 -11.6667
v  5.0000 0.0000 -11.6667
v  15.0000 0.0000 -11.6667
v  25.0000 0.0000 -11.6667
v  -15.0000 0.0000 -23.3333
v  -25.0000 0.0000 -23.3333
v  -5.0000 0.0000 -23.3333
v  15.0000 0.0000 -23.3333
v  5.0000 0.0000 -23.3333
v  25.0000 0.0000 -23.3333
v  -15.0000 0.0000 -35.0000
v  -25.0000 0.0000 -35.0000
v  -5.0000 0.0000 -35.0000
v  15.0000 0.0000 -35.0000
v  5.0000 0.0000 -35.0000
v  25.0000 0.0000 -35.0000
# 84 vertices

vn 0.0000 -1.0000 -0.0000
vn 0.0000 1.0000 -0.0000
vn 0.0000 0.0000 1.0000
vn 1.0000 0.0000 -0.0000
vn 0.0000 0.0000 -1.0000
vn -1.0000 0.0000 -0.0000
# 6 vertex normals

vt 0.5071 0.6860 0.0000
vt 0.5071 0.5733 0.0000
vt 0.6037 0.5733 0.0000
vt 0.6037 0.6860 0.0000
vt 0.7003 0.5733 0.0000
vt 0.7003 0.6860 0.0000
vt 0.7969 0.5733 0.0000
vt 0.7969 0.6860 0.0000
vt 0.8934 0.5733 0.0000
vt 0.8934 0.6860 0.0000
vt 0.9900 0.5733 0.0000
vt 0.9900 0.6860 0.0000
vt 0.5071 0.4607 0.0000
vt 0.6037 0.4607 0.0000
vt 0.7003 0.4607 0.0000
vt 0.7969 0.4607 0.0000
vt 0.8934 0.4607 0.0000
vt 0.9900 0.4607 0.0000
vt 0.5071 0.3480 0.0000
vt 0.6037 0.3480 0.0000
vt 0.7003 0.3480 0.0000
vt 0.7969 0.3480 0.0000
vt 0.8934 0.3480 0.0000
vt 0.9900 0.3480 0.0000
vt 0.5071 0.2353 0.0000
vt 0.6037 0.2353 0.0000
vt 0.7003 0.2353 0.0000
vt 0.7969 0.2353 0.0000
vt 0.8934 0.2353 0.0000
vt 0.9900 0.2353 0.0000
vt 0.5071 0.1227 0.0000
vt 0.6037 0.1227 0.0000
vt 0.7003 0.1227 0.0000
vt 0.7969 0.1227 0.0000
vt 0.8934 0.1227 0.0000
vt 0.9900 0.1227 0.0000
vt 0.5071 0.0100 0.0000
vt 0.6037 0.0100 0.0000
vt 0.7003 0.0100 0.0000
vt 0.7969 0.0100 0.0000
vt 0.8934 0.0100 0.0000
vt 0.9900 0.0100 0.0000
vt 0.0100 0.0100 0.0000
vt 0.1066 0.0100 0.0000
vt 0.1066 0.1227 0.0000
vt 0.0100 0.1227 0.0000
vt 0.2031 0.0100 0.0000
vt 0.2031 0.1227 0.0000
vt 0.2997 0.0100 0.0000
vt 0.3963 0.0100 0.0000
vt 0.3963 0.1227 0.0000
vt 0.2997 0.1227 0.0000
vt 0.4929 0.0100 0.0000
vt 0.4929 0.1227 0.0000
vt 0.1066 0.2353 0.0000
vt 0.0100 0.2353 0.0000
vt 0.2031 0.2353 0.0000
vt 0.3963 0.2353 0.0000
vt 0.2997 0.2353 0.0000
vt 0.4929 0.2353 0.0000
vt 0.1066 0.3480 0.0000
vt 0.0100 0.3480 0.0000
vt 0.2031 0.3480 0.0000
vt 0.2997 0.3480 0.0000
vt 0.3963 0.3480 0.0000
vt 0.4929 0.3480 0.0000
vt 0.1066 0.4607 0.0000
vt 0.0100 0.4607 0.0000
vt 0.2031 0.4607 0.0000
vt 0.2997 0.4607 0.0000
vt 0.3963 0.4607 0.0000
vt 0.4929 0.4607 0.0000
vt 0.1066 0.5733 0.0000
vt 0.0100 0.5733 0.0000
vt 0.2031 0.5733 0.0000
vt 0.3963 0.5733 0.0000
vt 0.2997 0.5733 0.0000
vt 0.4929 0.5733 0.0000
vt 0.1066 0.6860 0.0000
vt 0.0100 0.6860 0.0000
vt 0.2031 0.6860 0.0000
vt 0.3963 0.6860 0.0000
vt 0.2997 0.6860 0.0000
vt 0.4929 0.6860 0.0000
vt 0.0187 0.8342 0.0000
vt 0.1153 0.8342 0.0000
vt 0.1153 0.8632 0.0000
vt 0.0187 0.8632 0.0000
vt 0.2119 0.8342 0.0000
vt 0.2119 0.8632 0.0000
vt 0.3084 0.8342 0.0000
vt 0.3084 0.8632 0.0000
vt 0.4050 0.8342 0.0000
vt 0.4050 0.8632 0.0000
vt 0.5016 0.8342 0.0000
vt 0.5016 0.8632 0.0000
vt 0.0100 0.7034 0.0000
vt 0.1227 0.7034 0.0000
vt 0.1227 0.7324 0.0000
vt 0.0100 0.7324 0.0000
vt 0.2353 0.7034 0.0000
vt 0.2353 0.7324 0.0000
vt 0.3480 0.7034 0.0000
vt 0.3480 0.7324 0.0000
vt 0.4607 0.7034 0.0000
vt 0.4607 0.7324 0.0000
vt 0.5733 0.7034 0.0000
vt 0.5733 0.7324 0.0000
vt 0.6860 0.7034 0.0000
vt 0.6860 0.7324 0.0000
vt 0.0187 0.7906 0.0000
vt 0.1153 0.7906 0.0000
vt 0.1153 0.8196 0.0000
vt 0.0187 0.8196 0.0000
vt 0.2119 0.7906 0.0000
vt 0.2119 0.8196 0.0000
vt 0.3084 0.7906 0.0000
vt 0.3084 0.8196 0.0000
vt 0.4050 0.7906 0.0000
vt 0.4050 0.8196 0.0000
vt 0.5016 0.7906 0.0000
vt 0.5016 0.8196 0.0000
vt 0.0187 0.7470 0.0000
vt 0.1314 0.7470 0.0000
vt 0.1314 0.7760 0.0000
vt 0.0187 0.7760 0.0000
vt 0.2441 0.7470 0.0000
vt 0.2441 0.7760 0.0000
vt 0.3567 0.7470 0.0000
vt 0.3567 0.7760 0.0000
vt 0.4694 0.7470 0.0000
vt 0.4694 0.7760 0.0000
vt 0.5821 0.7470 0.0000
vt 0.5821 0.7760 0.0000
vt 0.6947 0.7470 0.0000
vt 0.6947 0.7760 0.0000
# 136 texture coords

g Box001
f 1/1/1 2/2/1 3/3/1 
f 3/3/1 4/4/1 1/1/1 
f 4/4/1 3/3/1 5/5/1 
f 5/5/1 6/6/1 4/4/1 
f 6/6/1 5/5/1 7/7/1 
f 7/7/1 8/8/1 6/6/1 
f 8/8/1 7/7/1 9/9/1 
f 9/9/1 10/10/1 8/8/1 
f 10/10/1 9/9/1 11/11/1 
f 11/11/1 12/12/1 10/10/1 
f 2/2/1 13/13/1 14/14/1 
f 14/14/1 3/3/1 2/2/1 
f 3/3/1 14/14/1 15/15/1 
f 15/15/1 5/5/1 3/3/1 
f 5/5/1 15/15/1 16/16/1 
f 16/16/1 7/7/1 5/5/1 
f 7/7/1 16/16/1 17/17/1 
f 17/17/1 9/9/1 7/7/1 
f 9/9/1 17/17/1 18/18/1 
f 18/18/1 11/11/1 9/9/1 
f 13/13/1 19/19/1 20/20/1 
f 20/20/1 14/14/1 13/13/1 
f 14/14/1 20/20/1 21/21/1 
f 21/21/1 15/15/1 14/14/1 
f 15/15/1 21/21/1 22/22/1 
f 22/22/1 16/16/1 15/15/1 
f 16/16/1 22/22/1 23/23/1 
f 23/23/1 17/17/1 16/16/1 
f 17/17/1 23/23/1 24/24/1 
f 24/24/1 18/18/1 17/17/1 
f 19/19/1 25/25/1 26/26/1 
f 26/26/1 20/20/1 19/19/1 
f 20/20/1 26/26/1 27/27/1 
f 27/27/1 21/21/1 20/20/1 
f 21/21/1 27/27/1 28/28/1 
f 28/28/1 22/22/1 21/21/1 
f 22/22/1 28/28/1 29/29/1 
f 29/29/1 23/23/1 22/22/1 
f 23/23/1 29/29/1 30/30/1 
f 30/30/1 24/24/1 23/23/1 
f 25/25/1 31/31/1 32/32/1 
f 32/32/1 26/26/1 25/25/1 
f 26/26/1 32/32/1 33/33/1 
f 33/33/1 27/27/1 26/26/1 
f 27/27/1 33/33/1 34/34/1 
f 34/34/1 28/28/1 27/27/1 
f 28/28/1 34/34/1 35/35/1 
f 35/35/1 29/29/1 28/28/1 
f 29/29/1 35/35/1 36/36/1 
f 36/36/1 30/30/1 29/29/1 
f 31/31/1 37/37/1 38/38/1 
f 38/38/1 32/32/1 31/31/1 
f 32/32/1 38/38/1 39/39/1 
f 39/39/1 33/33/1 32/32/1 
f 33/33/1 39/39/1 40/40/1 
f 40/40/1 34/34/1 33/33/1 
f 34/34/1 40/40/1 41/41/1 
f 41/41/1 35/35/1 34/34/1 
f 35/35/1 41/41/1 42/42/1 
f 42/42/1 36/36/1 35/35/1 
f 43/43/2 44/44/2 45/45/2 
f 45/45/2 46/46/2 43/43/2 
f 44/44/2 47/47/2 48/48/2 
f 48/48/2 45/45/2 44/44/2 
f 49/49/2 50/50/2 51/51/2 
f 51/51/2 52/52/2 49/49/2 
f 50/50/2 53/53/2 54/54/2 
f 54/54/2 51/51/2 50/50/2 
f 46/46/2 45/45/2 55/55/2 
f 55/55/2 56/56/2 46/46/2 
f 45/45/2 48/48/2 57/57/2 
f 57/57/2 55/55/2 45/45/2 
f 52/52/2 51/51/2 58/58/2 
f 58/58/2 59/59/2 52/52/2 
f 51/51/2 54/54/2 60/60/2 
f 60/60/2 58/58/2 51/51/2 
f 56/56/2 55/55/2 61/61/2 
f 61/61/2 62/62/2 56/56/2 
f 55/55/2 57/57/2 63/63/2 
f 63/63/2 61/61/2 55/55/2 
f 57/57/2 59/59/2 64/64/2 
f 64/64/2 63/63/2 57/57/2 
f 59/59/2 58/58/2 65/65/2 
f 65/65/2 64/64/2 59/59/2 
f 58/58/2 60/60/2 66/66/2 
f 66/66/2 65/65/2 58/58/2 
f 62/62/2 61/61/2 67/67/2 
f 67/67/2 68/68/2 62/62/2 
f 61/61/2 63/63/2 69/69/2 
f 69/69/2 67/67/2 61/61/2 
f 63/63/2 64/64/2 70/70/2 
f 70/70/2 69/69/2 63/63/2 
f 64/64/2 65/65/2 71/71/2 
f 71/71/2 70/70/2 64/64/2 
f 65/65/2 66/66/2 72/72/2 
f 72/72/2 71/71/2 65/65/2 
f 68/68/2 67/67/2 73/73/2 
f 73/73/2 74/74/2 68/68/2 
f 67/67/2 69/69/2 75/75/2 
f 75/75/2 73/73/2 67/67/2 
f 70/70/2 71/71/2 76/76/2 
f 76/76/2 77/77/2 70/70/2 
f 71/71/2 72/72/2 78/78/2 
f 78/78/2 76/76/2 71/71/2 
f 74/74/2 73/73/2 79/79/2 
f 79/79/2 80/80/2 74/74/2 
f 73/73/2 75/75/2 81/81/2 
f 81/81/2 79/79/2 73/73/2 
f 77/77/2 76/76/2 82/82/2 
f 82/82/2 83/83/2 77/77/2 
f 76/76/2 78/78/2 84/84/2 
f 84/84/2 82/82/2 76/76/2 
f 1/85/3 4/86/3 44/87/3 
f 44/87/3 43/88/3 1/85/3 
f 4/86/3 6/89/3 47/90/3 
f 47/90/3 44/87/3 4/86/3 
f 6/89/3 8/91/3 49/92/3 
f 49/92/3 47/90/3 6/89/3 
f 8/91/3 10/93/3 50/94/3 
f 50/94/3 49/92/3 8/91/3 
f 10/93/3 12/95/3 53/96/3 
f 53/96/3 50/94/3 10/93/3 
f 12/97/4 11/98/4 54/99/4 
f 54/99/4 53/100/4 12/97/4 
f 11/98/4 18/101/4 60/102/4 
f 60/102/4 54/99/4 11/98/4 
f 18/101/4 24/103/4 66/104/4 
f 66/104/4 60/102/4 18/101/4 
f 24/103/4 30/105/4 72/106/4 
f 72/106/4 66/104/4 24/103/4 
f 30/105/4 36/107/4 78/108/4 
f 78/108/4 72/106/4 30/105/4 
f 36/107/4 42/109/4 84/110/4 
f 84/110/4 78/108/4 36/107/4 
f 42/111/5 41/112/5 82/113/5 
f 82/113/5 84/114/5 42/111/5 
f 41/112/5 40/115/5 83/116/5 
f 83/116/5 82/113/5 41/112/5 
f 40/115/5 39/117/5 81/118/5 
f 81/118/5 83/116/5 40/115/5 
f 39/117/5 38/119/5 79/120/5 
f 79/120/5 81/118/5 39/117/5 
f 38/119/5 37/121/5 80/122/5 
f 80/122/5 79/120/5 38/119/5 
f 37/123/6 31/124/6 74/125/6 
f 74/125/6 80/126/6 37/123/6 
f 31/124/6 25/127/6 68/128/6 
f 68/128/6 74/125/6 31/124/6 
f 25/127/6 19/129/6 62/130/6 
f 62/130/6 68/128/6 25/127/6 
f 19/129/6 13/131/6 56/132/6 
f 56/132/6 62/130/6 19/129/6 
f 13/131/6 2/133/6 46/134/6 
f 46/134/6 56/132/6 13/131/6 
f 2/133/6 1/135/6 43/136/6 
f 43/136/6 46/134/6 2/133/6 
f 77/77/2 75/75/2 69/69/2 
f 69/69/2 70/70/2 77/77/2 
f 49/49/2 52/52/2 48/48/2 
f 48/48/2 47/47/2 49/49/2 
f 59/59/2 57/57/2 48/48/2 
f 48/48/2 52/52/2 59/59/2 
f 83/83/2 81/81/2 75/75/2 
f 75/75/2 77/77/2 83/83/2 
# 164 faces

