# 3ds Max Wavefront OBJ Exporter v0.97b - (c)2007 guruware
# File Created: 30.05.2019 17:17:58

#
# object GeoSphere001
#

v  -0.0132 0.1644 0.0000
v  0.1570 0.0763 0.0000
v  -0.0983 0.0763 -0.1474
v  0.1834 -0.1135 0.0000
v  0.0719 -0.1644 -0.1474
v  -0.1113 -0.1135 -0.1702
v  -0.0983 0.0763 0.1474
v  -0.1834 -0.1644 0.0000
v  -0.1113 -0.1135 0.1702
v  0.0719 -0.1644 0.1474
# 10 vertices

vn 0.0000 1.0000 -0.0000
vn 0.8165 0.5774 -0.0000
vn -0.4082 0.5774 -0.7071
vn 0.9428 -0.3333 -0.0000
vn 0.4082 -0.5774 -0.7071
vn -0.4714 -0.3333 -0.8165
vn -0.4082 0.5774 0.7071
vn -0.8165 -0.5774 -0.0000
vn -0.4714 -0.3333 0.8165
vn 0.4082 -0.5774 0.7071
# 10 vertex normals

vt 0.8020 0.4453 0.0000
vt 0.6370 0.3218 0.0000
vt 0.9537 0.3057 0.0000
vt 0.4024 0.2639 0.0000
vt 0.4024 0.0577 0.0000
vt 0.6051 0.0200 0.0000
vt 0.7814 0.0394 0.0000
vt 0.9782 0.1010 0.0000
vt 0.1863 0.9800 0.0000
vt 0.0408 0.8339 0.0000
vt 0.3566 0.8637 0.0000
vt 0.0615 0.7181 -0.0000
vt 0.0540 0.5121 -0.0000
vt 0.2552 0.4669 0.0000
vt 0.0394 0.8637 0.0000
vt 0.1980 0.5891 0.0000
vt 0.2140 0.5804 0.0000
vt 0.4030 0.6628 0.0000
vt 0.5338 0.9690 0.0000
vt 0.6698 0.8140 -0.0000
vt 0.5249 0.8007 0.0000
vt 0.5009 0.5960 0.0000
vt 0.6979 0.5350 0.0000
vt 0.8416 0.8177 0.0000
vt 0.1997 0.0200 0.0000
vt 0.1786 0.4459 0.0000
vt 0.0200 0.3141 0.0000
vt 0.3371 0.3141 0.0000
vt 0.5366 0.5058 0.0000
vt 0.2242 0.5602 0.0000
vt 0.1786 0.0394 0.0000
vt 0.6613 0.4718 0.0000
vt 0.9784 0.4718 0.0000
vt 0.8198 0.6036 0.0000
# 34 texture coords

o GeoSphere001
g GeoSphere001
f 1/1/1 2/2/2 3/3/3 
f 2/4/2 4/5/4 5/6/5 
f 2/2/2 5/7/5 3/3/3 
f 3/3/3 5/7/5 6/8/6 
f 1/9/1 3/10/3 7/11/7 
f 3/12/3 6/13/6 8/14/8 
f 3/15/3 8/16/8 7/11/7 
f 7/11/7 8/17/8 9/18/9 
f 1/19/1 7/11/7 2/20/2 
f 7/21/7 9/22/9 10/23/10 
f 7/21/7 10/23/10 2/24/2 
f 2/4/2 10/25/10 4/5/4 
f 4/26/4 10/27/10 5/28/5 
f 10/29/10 9/18/9 8/30/8 
f 10/27/10 8/31/8 5/28/5 
f 5/32/5 8/33/8 6/34/6 
# 16 faces

