# 3ds Max Wavefront OBJ Exporter v0.97b - (c)2007 guruware
# File Created: 29.05.2019 11:13:53

#
# object Object001
#

v  -5.0000 10.0000 23.3333
v  5.0000 10.0000 23.3333
v  5.0000 10.0000 11.6667
v  -5.0000 10.0000 11.6667
v  -5.0000 10.0000 -11.6667
v  5.0000 10.0000 -11.6667
v  5.0000 10.0000 -23.3333
v  -5.0000 10.0000 -23.3333
v  -5.0000 0.0000 23.3333
v  5.0000 0.0000 23.3333
v  5.0000 0.0000 11.6667
v  -5.0000 0.0000 11.6667
v  5.0000 0.0000 -23.3333
v  -5.0000 0.0000 -23.3333
v  -5.0000 0.0000 -11.6667
v  5.0000 0.0000 -11.6667
# 16 vertices

vn 0.0000 1.0000 -0.0000
vn 0.0000 0.0000 1.0000
vn 1.0000 0.0000 -0.0000
vn -1.0000 0.0000 -0.0000
vn 0.0000 0.0000 -1.0000
vn 0.0000 -1.0000 -0.0000
# 6 vertex normals

vt 0.8097 0.0200 0.0000
vt 0.9722 0.0200 0.0000
vt 0.9722 0.2096 0.0000
vt 0.8097 0.2096 0.0000
vt 0.8097 0.5888 0.0000
vt 0.9722 0.5888 0.0000
vt 0.9722 0.7785 0.0000
vt 0.8097 0.7785 0.0000
vt 0.2155 0.3875 0.0000
vt 0.3780 0.3875 0.0000
vt 0.3780 0.5500 0.0000
vt 0.2155 0.5500 0.0000
vt 0.0200 0.0200 0.0000
vt 0.2096 0.0200 0.0000
vt 0.2096 0.1825 0.0000
vt 0.0200 0.1825 0.0000
vt 0.7843 0.8175 0.0000
vt 0.9739 0.8175 0.0000
vt 0.9739 0.9800 0.0000
vt 0.7843 0.9800 0.0000
vt 0.2155 0.2037 0.0000
vt 0.3780 0.2037 0.0000
vt 0.3780 0.3663 0.0000
vt 0.2155 0.3663 0.0000
vt 0.2155 0.8175 0.0000
vt 0.4051 0.8175 0.0000
vt 0.4051 0.9800 0.0000
vt 0.2155 0.9800 0.0000
vt 0.5888 0.0200 0.0000
vt 0.7785 0.0200 0.0000
vt 0.7785 0.1825 0.0000
vt 0.5888 0.1825 0.0000
vt 0.1825 0.7726 0.0000
vt 0.0200 0.7726 0.0000
vt 0.0200 0.3933 0.0000
vt 0.1825 0.3933 0.0000
vt 0.1825 0.9622 0.0000
vt 0.0200 0.9622 0.0000
vt 0.0200 0.2037 0.0000
vt 0.1825 0.2037 0.0000
# 40 texture coords

g Object001
f 1/1/1 2/2/1 3/3/1 
f 3/3/1 4/4/1 1/1/1 
f 5/5/1 6/6/1 7/7/1 
f 7/7/1 8/8/1 5/5/1 
f 9/9/2 10/10/2 2/11/2 
f 2/11/2 1/12/2 9/9/2 
f 10/13/3 11/14/3 3/15/3 
f 3/15/3 2/16/3 10/13/3 
f 12/17/4 9/18/4 1/19/4 
f 1/19/4 4/20/4 12/17/4 
f 13/21/5 14/22/5 8/23/5 
f 8/23/5 7/24/5 13/21/5 
f 14/25/4 15/26/4 5/27/4 
f 5/27/4 8/28/4 14/25/4 
f 16/29/3 13/30/3 7/31/3 
f 7/31/3 6/32/3 16/29/3 
f 11/33/6 12/34/6 15/35/6 
f 15/35/6 16/36/6 11/33/6 
f 12/17/4 4/20/4 5/27/4 
f 5/27/4 15/26/4 12/17/4 
f 4/4/1 3/3/1 6/6/1 
f 6/6/1 5/5/1 4/4/1 
f 3/15/3 11/14/3 16/29/3 
f 16/29/3 6/32/3 3/15/3 
f 12/34/6 11/33/6 10/37/6 
f 10/37/6 9/38/6 12/34/6 
f 16/36/6 15/35/6 14/39/6 
f 14/39/6 13/40/6 16/36/6 
# 28 faces

