# 3ds Max Wavefront OBJ Exporter v0.97b - (c)2007 guruware
# File Created: 29.05.2019 12:23:34

#
# object walls
#

v  -5.0000 10.0000 11.6667
v  5.0000 10.0000 11.6667
v  5.0000 10.0000 -0.0000
v  -5.0000 10.0000 -0.0000
v  -5.0000 -10.0000 -0.0000
v  -5.0000 -10.0000 11.6667
v  -5.0000 0.0000 11.6667
v  -5.0000 0.0000 -0.0000
v  5.0000 -10.0000 11.6667
v  5.0000 0.0000 11.6667
v  5.0000 -10.0000 -0.0000
v  5.0000 0.0000 -0.0000
v  5.0000 -10.0000 -11.6667
v  5.0000 0.0000 -11.6667
v  -5.0000 -10.0000 -11.6667
v  -5.0000 0.0000 -11.6667
v  5.0000 10.0000 -11.6667
v  -5.0000 10.0000 -11.6667
# 18 vertices

vn 0.0000 1.0000 -0.0000
vn -1.0000 0.0000 -0.0000
vn 0.0000 0.0000 1.0000
vn 1.0000 0.0000 -0.0000
vn 0.0000 0.0000 -1.0000
# 5 vertex normals

vt 0.0200 0.4617 0.0000
vt 0.2293 0.4617 0.0000
vt 0.2293 0.7060 0.0000
vt 0.0200 0.7060 0.0000
vt 0.4935 0.5354 0.0000
vt 0.7244 0.5354 0.0000
vt 0.7244 0.7567 0.0000
vt 0.4935 0.7567 0.0000
vt 0.5440 0.0200 0.0000
vt 0.7534 0.0200 0.0000
vt 0.7534 0.2293 0.0000
vt 0.5440 0.2293 0.0000
vt 0.0200 0.0200 0.0000
vt 0.2642 0.0200 0.0000
vt 0.2642 0.2293 0.0000
vt 0.0200 0.2293 0.0000
vt 0.5084 0.0200 0.0000
vt 0.5084 0.2293 0.0000
vt 0.7606 0.5613 0.0000
vt 0.9699 0.5613 0.0000
vt 0.9699 0.7707 0.0000
vt 0.7606 0.7707 0.0000
vt 0.2625 0.5354 0.0000
vt 0.2625 0.7567 0.0000
vt 0.7244 0.9780 0.0000
vt 0.4935 0.9780 0.0000
vt 0.7534 0.4387 0.0000
vt 0.5440 0.4387 0.0000
vt 0.2642 0.4387 0.0000
vt 0.0200 0.4387 0.0000
vt 0.5084 0.4387 0.0000
vt 0.9699 0.9800 0.0000
vt 0.7606 0.9800 0.0000
vt 0.2625 0.9780 0.0000
vt 0.2293 0.9502 0.0000
vt 0.0200 0.9502 0.0000
# 36 texture coords

g walls
f 1/1/1 2/2/1 3/3/1 
f 3/3/1 4/4/1 1/1/1 
f 5/5/2 6/6/2 7/7/2 
f 7/7/2 8/8/2 5/5/2 
f 6/9/3 9/10/3 10/11/3 
f 10/11/3 7/12/3 6/9/3 
f 9/13/4 11/14/4 12/15/4 
f 12/15/4 10/16/4 9/13/4 
f 11/14/4 13/17/4 14/18/4 
f 14/18/4 12/15/4 11/14/4 
f 13/19/5 15/20/5 16/21/5 
f 16/21/5 14/22/5 13/19/5 
f 15/23/2 5/5/2 8/8/2 
f 8/8/2 16/24/2 15/23/2 
f 8/8/2 7/7/2 1/25/2 
f 1/25/2 4/26/2 8/8/2 
f 7/12/3 10/11/3 2/27/3 
f 2/27/3 1/28/3 7/12/3 
f 10/16/4 12/15/4 3/29/4 
f 3/29/4 2/30/4 10/16/4 
f 12/15/4 14/18/4 17/31/4 
f 17/31/4 3/29/4 12/15/4 
f 14/22/5 16/21/5 18/32/5 
f 18/32/5 17/33/5 14/22/5 
f 16/24/2 8/8/2 4/26/2 
f 4/26/2 18/34/2 16/24/2 
f 17/35/1 18/36/1 4/4/1 
f 4/4/1 3/3/1 17/35/1 
# 28 faces

