# 3ds Max Wavefront OBJ Exporter v0.97b - (c)2007 guruware
# File Created: 26.05.2019 12:43:20

#
# object Cylinder001
#

v  0.5286 0.0000 -0.0000
v  0.4985 0.1710 0.0000
v  0.4985 0.1710 0.0180
v  0.5286 -0.0000 0.0180
v  0.4116 0.3214 0.0000
v  0.4116 0.3214 0.0180
v  0.2786 0.4330 0.0000
v  0.2786 0.4330 0.0180
v  0.1154 0.4924 0.0000
v  0.1154 0.4924 0.0180
v  -0.0582 0.4924 0.0000
v  -0.0582 0.4924 0.0180
v  -0.2214 0.4330 0.0000
v  -0.2214 0.4330 0.0180
v  -0.3544 0.3214 0.0000
v  -0.3544 0.3214 0.0180
v  -0.4412 0.1710 0.0000
v  -0.4412 0.1710 0.0180
v  -0.4714 0.0000 0.0000
v  -0.4714 0.0000 0.0180
v  -0.4412 -0.1710 -0.0000
v  -0.4412 -0.1710 0.0180
v  -0.3544 -0.3214 -0.0000
v  -0.3544 -0.3214 0.0180
v  -0.2214 -0.4330 -0.0000
v  -0.2214 -0.4330 0.0180
v  -0.0582 -0.4924 -0.0000
v  -0.0582 -0.4924 0.0180
v  0.1154 -0.4924 -0.0000
v  0.1154 -0.4924 0.0180
v  0.2786 -0.4330 -0.0000
v  0.2786 -0.4330 0.0180
v  0.4116 -0.3214 -0.0000
v  0.4116 -0.3214 0.0180
v  0.4985 -0.1710 -0.0000
v  0.4985 -0.1710 0.0180
v  0.4985 0.1710 0.0360
v  0.5286 -0.0000 0.0360
v  0.4116 0.3214 0.0360
v  0.2786 0.4330 0.0360
v  0.1154 0.4924 0.0360
v  -0.0582 0.4924 0.0360
v  -0.2214 0.4330 0.0360
v  -0.3544 0.3214 0.0360
v  -0.4412 0.1710 0.0360
v  -0.4714 0.0000 0.0360
v  -0.4412 -0.1710 0.0360
v  -0.3544 -0.3214 0.0360
v  -0.2214 -0.4330 0.0360
v  -0.0582 -0.4924 0.0360
v  0.1154 -0.4924 0.0360
v  0.2786 -0.4330 0.0360
v  0.4116 -0.3214 0.0360
v  0.4985 -0.1710 0.0360
v  0.4985 0.1710 0.0540
v  0.5286 -0.0000 0.0540
v  0.4116 0.3214 0.0540
v  0.2786 0.4330 0.0540
v  0.1154 0.4924 0.0540
v  -0.0582 0.4924 0.0540
v  -0.2214 0.4330 0.0540
v  -0.3544 0.3214 0.0540
v  -0.4412 0.1710 0.0540
v  -0.4714 0.0000 0.0540
v  -0.4412 -0.1710 0.0540
v  -0.3544 -0.3214 0.0540
v  -0.2214 -0.4330 0.0540
v  -0.0582 -0.4924 0.0540
v  0.1154 -0.4924 0.0540
v  0.2786 -0.4330 0.0540
v  0.4116 -0.3214 0.0540
v  0.4985 -0.1710 0.0540
v  0.4985 0.1710 0.0720
v  0.5286 -0.0000 0.0720
v  0.4116 0.3214 0.0720
v  0.2786 0.4330 0.0720
v  0.1154 0.4924 0.0720
v  -0.0582 0.4924 0.0720
v  -0.2214 0.4330 0.0720
v  -0.3544 0.3214 0.0720
v  -0.4412 0.1710 0.0720
v  -0.4714 0.0000 0.0720
v  -0.4412 -0.1710 0.0720
v  -0.3544 -0.3214 0.0720
v  -0.2214 -0.4330 0.0720
v  -0.0582 -0.4924 0.0720
v  0.1154 -0.4924 0.0720
v  0.2786 -0.4330 0.0720
v  0.4116 -0.3214 0.0720
v  0.4985 -0.1710 0.0720
v  0.4985 0.1710 0.0900
v  0.5286 -0.0000 0.0900
v  0.4116 0.3214 0.0900
v  0.2786 0.4330 0.0900
v  0.1154 0.4924 0.0900
v  -0.0582 0.4924 0.0900
v  -0.2214 0.4330 0.0900
v  -0.3544 0.3214 0.0900
v  -0.4412 0.1710 0.0900
v  -0.4714 0.0000 0.0900
v  -0.4412 -0.1710 0.0900
v  -0.3544 -0.3214 0.0900
v  -0.2214 -0.4330 0.0900
v  -0.0582 -0.4924 0.0900
v  0.1154 -0.4924 0.0900
v  0.2786 -0.4330 0.0900
v  0.4116 -0.3214 0.0900
v  0.4985 -0.1710 0.0900
v  0.3619 0.0000 -0.0000
v  0.3418 0.1140 0.0000
v  0.2840 0.2143 0.0000
v  0.1953 0.2887 0.0000
v  0.0865 0.3283 0.0000
v  -0.0293 0.3283 0.0000
v  -0.1381 0.2887 0.0000
v  -0.2267 0.2143 0.0000
v  -0.2846 0.1140 0.0000
v  -0.3047 0.0000 0.0000
v  -0.2846 -0.1140 -0.0000
v  -0.2267 -0.2143 -0.0000
v  -0.1381 -0.2887 -0.0000
v  -0.0293 -0.3283 -0.0000
v  0.0865 -0.3283 -0.0000
v  0.1953 -0.2887 -0.0000
v  0.2840 -0.2143 -0.0000
v  0.3418 -0.1140 -0.0000
v  0.1953 0.0000 -0.0000
v  0.1852 0.0570 0.0000
v  0.1563 0.1071 0.0000
v  0.1119 0.1443 0.0000
v  0.0576 0.1641 0.0000
v  -0.0003 0.1641 0.0000
v  -0.0547 0.1443 0.0000
v  -0.0991 0.1071 0.0000
v  -0.1280 0.0570 0.0000
v  -0.1381 0.0000 0.0000
v  -0.1280 -0.0570 -0.0000
v  -0.0991 -0.1071 -0.0000
v  -0.0547 -0.1443 -0.0000
v  -0.0003 -0.1641 -0.0000
v  0.0576 -0.1641 -0.0000
v  0.1119 -0.1443 -0.0000
v  0.1563 -0.1071 -0.0000
v  0.1852 -0.0570 -0.0000
v  0.0286 0.0000 -0.0000
v  0.3418 0.1140 0.0900
v  0.3619 -0.0000 0.0900
v  0.2840 0.2143 0.0900
v  0.1953 0.2887 0.0900
v  0.0865 0.3283 0.0900
v  -0.0293 0.3283 0.0900
v  -0.1381 0.2887 0.0900
v  -0.2267 0.2143 0.0900
v  -0.2846 0.1140 0.0900
v  -0.3047 0.0000 0.0900
v  -0.2846 -0.1140 0.0900
v  -0.2267 -0.2143 0.0900
v  -0.1381 -0.2887 0.0900
v  -0.0293 -0.3283 0.0900
v  0.0865 -0.3283 0.0900
v  0.1953 -0.2887 0.0900
v  0.2840 -0.2143 0.0900
v  0.3418 -0.1140 0.0900
v  0.1852 0.0570 0.0900
v  0.1953 -0.0000 0.0900
v  0.1563 0.1071 0.0900
v  0.1119 0.1443 0.0900
v  0.0576 0.1641 0.0900
v  -0.0003 0.1641 0.0900
v  -0.0547 0.1443 0.0900
v  -0.0991 0.1071 0.0900
v  -0.1280 0.0570 0.0900
v  -0.1381 0.0000 0.0900
v  -0.1280 -0.0570 0.0900
v  -0.0991 -0.1071 0.0900
v  -0.0547 -0.1443 0.0900
v  -0.0003 -0.1641 0.0900
v  0.0576 -0.1641 0.0900
v  0.1119 -0.1443 0.0900
v  0.1563 -0.1071 0.0900
v  0.1852 -0.0570 0.0900
v  0.0286 -0.0000 0.0900
# 182 vertices

vn 1.0000 -0.0000 -0.0000
vn 0.9397 0.3420 0.0000
vn 0.7660 0.6428 0.0000
vn 0.5000 0.8660 0.0000
vn 0.1736 0.9848 0.0000
vn -0.1736 0.9848 0.0000
vn -0.5000 0.8660 0.0000
vn -0.7660 0.6428 0.0000
vn -0.9397 0.3420 0.0000
vn -1.0000 0.0000 0.0000
vn -0.9397 -0.3420 -0.0000
vn -0.7660 -0.6428 -0.0000
vn -0.5000 -0.8660 -0.0000
vn -0.1736 -0.9848 -0.0000
vn 0.1736 -0.9848 -0.0000
vn 0.5000 -0.8660 -0.0000
vn 0.7660 -0.6428 -0.0000
vn 0.9397 -0.3420 -0.0000
vn 0.0000 0.0000 -1.0000
vn 0.0000 -0.0000 1.0000
# 20 vertex normals

vt 0.0629 0.4262 0.0000
vt 0.0629 0.5283 0.0000
vt 0.0523 0.5283 0.0000
vt 0.0523 0.4262 0.0000
vt 0.0627 0.6304 0.0000
vt 0.0522 0.6304 0.0000
vt 0.0627 0.7326 0.0000
vt 0.0522 0.7324 0.0000
vt 0.0625 0.8356 0.0000
vt 0.0521 0.8344 0.0000
vt 0.0364 0.9362 0.0000
vt 0.0364 0.9349 0.0000
vt 0.0104 0.8356 0.0000
vt 0.0208 0.8344 0.0000
vt 0.0102 0.7326 0.0000
vt 0.0208 0.7324 0.0000
vt 0.0100 0.6304 0.0000
vt 0.0206 0.6303 0.0000
vt 0.0100 0.5283 0.0000
vt 0.0206 0.5283 0.0000
vt 0.0100 0.4261 0.0000
vt 0.0206 0.4262 0.0000
vt 0.0101 0.3240 0.0000
vt 0.0207 0.3241 0.0000
vt 0.0102 0.2218 0.0000
vt 0.0207 0.2220 0.0000
vt 0.0103 0.1188 0.0000
vt 0.0207 0.1200 0.0000
vt 0.0364 0.0182 0.0000
vt 0.0364 0.0196 0.0000
vt 0.0625 0.1188 0.0000
vt 0.0521 0.1201 0.0000
vt 0.0626 0.2218 0.0000
vt 0.0521 0.2220 0.0000
vt 0.0629 0.3240 0.0000
vt 0.0523 0.3241 0.0000
vt 0.0417 0.5283 0.0000
vt 0.0417 0.4262 0.0000
vt 0.0417 0.6303 0.0000
vt 0.0417 0.7322 0.0000
vt 0.0417 0.8337 0.0000
vt 0.0312 0.8336 0.0000
vt 0.0312 0.7322 0.0000
vt 0.0311 0.6303 0.0000
vt 0.0311 0.5282 0.0000
vt 0.0311 0.4262 0.0000
vt 0.0312 0.3241 0.0000
vt 0.0312 0.2223 0.0000
vt 0.0312 0.1208 0.0000
vt 0.0364 0.0195 0.0000
vt 0.0417 0.1208 0.0000
vt 0.0417 0.2223 0.0000
vt 0.0417 0.3242 0.0000
vt 0.0311 0.5283 0.0000
vt 0.0312 0.6303 0.0000
vt 0.0312 0.8337 0.0000
vt 0.0417 0.8336 0.0000
vt 0.0417 0.5282 0.0000
vt 0.0417 0.3241 0.0000
vt 0.0311 0.3242 0.0000
vt 0.0207 0.6304 0.0000
vt 0.0207 0.7324 0.0000
vt 0.0207 0.8344 0.0000
vt 0.0521 0.7324 0.0000
vt 0.0523 0.6303 0.0000
vt 0.0522 0.3241 0.0000
vt 0.0522 0.2220 0.0000
vt 0.0521 0.1200 0.0000
vt 0.0208 0.1201 0.0000
vt 0.0208 0.2220 0.0000
vt 0.0206 0.3241 0.0000
vt 0.0100 0.4262 0.0000
vt 0.0101 0.6304 0.0000
vt 0.0103 0.8356 0.0000
vt 0.0626 0.7326 0.0000
vt 0.0629 0.6304 0.0000
vt 0.0629 0.4261 0.0000
vt 0.0627 0.3240 0.0000
vt 0.0627 0.2218 0.0000
vt 0.0104 0.1188 0.0000
vt 0.0100 0.3240 0.0000
vt 0.4541 0.8081 0.0000
vt 0.4374 0.7136 0.0000
vt 0.5295 0.7136 0.0000
vt 0.5406 0.7766 0.0000
vt 0.5021 0.8912 0.0000
vt 0.5726 0.8321 0.0000
vt 0.5756 0.9529 0.0000
vt 0.6216 0.8732 0.0000
vt 0.6657 0.9857 0.0000
vt 0.6817 0.8951 0.0000
vt 0.7617 0.9857 0.0000
vt 0.7457 0.8951 0.0000
vt 0.8519 0.9529 0.0000
vt 0.8058 0.8732 0.0000
vt 0.9254 0.8912 0.0000
vt 0.8549 0.8321 0.0000
vt 0.9733 0.8081 0.0000
vt 0.8869 0.7766 0.0000
vt 0.9900 0.7136 0.0000
vt 0.8980 0.7136 0.0000
vt 0.9733 0.6191 0.0000
vt 0.8869 0.6506 0.0000
vt 0.9254 0.5360 0.0000
vt 0.8549 0.5952 0.0000
vt 0.8519 0.4744 0.0000
vt 0.8058 0.5541 0.0000
vt 0.7617 0.4415 0.0000
vt 0.7457 0.5322 0.0000
vt 0.6657 0.4415 0.0000
vt 0.6817 0.5322 0.0000
vt 0.5756 0.4744 0.0000
vt 0.6216 0.5541 0.0000
vt 0.5021 0.5360 0.0000
vt 0.5726 0.5952 0.0000
vt 0.4541 0.6191 0.0000
vt 0.5406 0.6506 0.0000
vt 0.6215 0.7136 0.0000
vt 0.6271 0.7452 0.0000
vt 0.6431 0.7729 0.0000
vt 0.6676 0.7935 0.0000
vt 0.6977 0.8044 0.0000
vt 0.7297 0.8044 0.0000
vt 0.7598 0.7935 0.0000
vt 0.7843 0.7729 0.0000
vt 0.8003 0.7452 0.0000
vt 0.8059 0.7136 0.0000
vt 0.8003 0.6821 0.0000
vt 0.7843 0.6544 0.0000
vt 0.7598 0.6338 0.0000
vt 0.7297 0.6229 0.0000
vt 0.6977 0.6229 0.0000
vt 0.6676 0.6338 0.0000
vt 0.6431 0.6544 0.0000
vt 0.6271 0.6821 0.0000
vt 0.7137 0.7136 0.0000
vt 0.6324 0.2821 0.0000
vt 0.6158 0.3766 0.0000
vt 0.5293 0.3451 0.0000
vt 0.5404 0.2821 0.0000
vt 0.5678 0.4597 0.0000
vt 0.4973 0.4005 0.0000
vt 0.4943 0.5214 0.0000
vt 0.4483 0.4417 0.0000
vt 0.4041 0.5542 0.0000
vt 0.3882 0.4635 0.0000
vt 0.3082 0.5542 0.0000
vt 0.3242 0.4635 0.0000
vt 0.2180 0.5214 0.0000
vt 0.2640 0.4417 0.0000
vt 0.1445 0.4597 0.0000
vt 0.2150 0.4005 0.0000
vt 0.0965 0.3766 0.0000
vt 0.1830 0.3451 0.0000
vt 0.0799 0.2821 0.0000
vt 0.1719 0.2821 0.0000
vt 0.0965 0.1876 0.0000
vt 0.1830 0.2191 0.0000
vt 0.1445 0.1045 0.0000
vt 0.2150 0.1637 0.0000
vt 0.2180 0.0428 0.0000
vt 0.2640 0.1225 0.0000
vt 0.3082 0.0100 0.0000
vt 0.3242 0.1006 0.0000
vt 0.4041 0.0100 0.0000
vt 0.3882 0.1006 0.0000
vt 0.4943 0.0428 0.0000
vt 0.4483 0.1225 0.0000
vt 0.5678 0.1045 0.0000
vt 0.4973 0.1637 0.0000
vt 0.6158 0.1876 0.0000
vt 0.5293 0.2191 0.0000
vt 0.4428 0.3136 0.0000
vt 0.4483 0.2821 0.0000
vt 0.4268 0.3413 0.0000
vt 0.4022 0.3619 0.0000
vt 0.3722 0.3729 0.0000
vt 0.3401 0.3729 0.0000
vt 0.3101 0.3619 0.0000
vt 0.2855 0.3413 0.0000
vt 0.2695 0.3136 0.0000
vt 0.2640 0.2821 0.0000
vt 0.2695 0.2506 0.0000
vt 0.2855 0.2228 0.0000
vt 0.3101 0.2023 0.0000
vt 0.3401 0.1913 0.0000
vt 0.3722 0.1913 0.0000
vt 0.4022 0.2023 0.0000
vt 0.4268 0.2228 0.0000
vt 0.4428 0.2506 0.0000
vt 0.3562 0.2821 0.0000
# 191 texture coords

g Cylinder001
f 1/1/1 2/2/2 3/3/2 
f 3/3/2 4/4/1 1/1/1 
f 2/2/2 5/5/3 6/6/3 
f 6/6/3 3/3/2 2/2/2 
f 5/5/3 7/7/4 8/8/4 
f 8/8/4 6/6/3 5/5/3 
f 7/7/4 9/9/5 10/10/5 
f 10/10/5 8/8/4 7/7/4 
f 9/9/5 11/11/6 12/12/6 
f 12/12/6 10/10/5 9/9/5 
f 11/11/6 13/13/7 14/14/7 
f 14/14/7 12/12/6 11/11/6 
f 13/13/7 15/15/8 16/16/8 
f 16/16/8 14/14/7 13/13/7 
f 15/15/8 17/17/9 18/18/9 
f 18/18/9 16/16/8 15/15/8 
f 17/17/9 19/19/10 20/20/10 
f 20/20/10 18/18/9 17/17/9 
f 19/19/10 21/21/11 22/22/11 
f 22/22/11 20/20/10 19/19/10 
f 21/21/11 23/23/12 24/24/12 
f 24/24/12 22/22/11 21/21/11 
f 23/23/12 25/25/13 26/26/13 
f 26/26/13 24/24/12 23/23/12 
f 25/25/13 27/27/14 28/28/14 
f 28/28/14 26/26/13 25/25/13 
f 27/27/14 29/29/15 30/30/15 
f 30/30/15 28/28/14 27/27/14 
f 29/29/15 31/31/16 32/32/16 
f 32/32/16 30/30/15 29/29/15 
f 31/31/16 33/33/17 34/34/17 
f 34/34/17 32/32/16 31/31/16 
f 33/33/17 35/35/18 36/36/18 
f 36/36/18 34/34/17 33/33/17 
f 35/35/18 1/1/1 4/4/1 
f 4/4/1 36/36/18 35/35/18 
f 4/4/1 3/3/2 37/37/2 
f 37/37/2 38/38/1 4/4/1 
f 3/3/2 6/6/3 39/39/3 
f 39/39/3 37/37/2 3/3/2 
f 6/6/3 8/8/4 40/40/4 
f 40/40/4 39/39/3 6/6/3 
f 8/8/4 10/10/5 41/41/5 
f 41/41/5 40/40/4 8/8/4 
f 10/10/5 12/12/6 42/12/6 
f 42/12/6 41/41/5 10/10/5 
f 12/12/6 14/14/7 43/42/7 
f 43/42/7 42/12/6 12/12/6 
f 14/14/7 16/16/8 44/43/8 
f 44/43/8 43/42/7 14/14/7 
f 16/16/8 18/18/9 45/44/9 
f 45/44/9 44/43/8 16/16/8 
f 18/18/9 20/20/10 46/45/10 
f 46/45/10 45/44/9 18/18/9 
f 20/20/10 22/22/11 47/46/11 
f 47/46/11 46/45/10 20/20/10 
f 22/22/11 24/24/12 48/47/12 
f 48/47/12 47/46/11 22/22/11 
f 24/24/12 26/26/13 49/48/13 
f 49/48/13 48/47/12 24/24/12 
f 26/26/13 28/28/14 50/49/14 
f 50/49/14 49/48/13 26/26/13 
f 28/28/14 30/30/15 51/50/15 
f 51/50/15 50/49/14 28/28/14 
f 30/30/15 32/32/16 52/51/16 
f 52/51/16 51/50/15 30/30/15 
f 32/32/16 34/34/17 53/52/17 
f 53/52/17 52/51/16 32/32/16 
f 34/34/17 36/36/18 54/53/18 
f 54/53/18 53/52/17 34/34/17 
f 36/36/18 4/4/1 38/38/1 
f 38/38/1 54/53/18 36/36/18 
f 38/38/1 37/37/2 55/54/2 
f 55/54/2 56/46/1 38/38/1 
f 37/37/2 39/39/3 57/55/3 
f 57/55/3 55/54/2 37/37/2 
f 39/39/3 40/40/4 58/43/4 
f 58/43/4 57/55/3 39/39/3 
f 40/40/4 41/41/5 59/56/5 
f 59/56/5 58/43/4 40/40/4 
f 41/41/5 42/12/6 60/12/6 
f 60/12/6 59/56/5 41/41/5 
f 42/12/6 43/42/7 61/57/7 
f 61/57/7 60/12/6 42/12/6 
f 43/42/7 44/43/8 62/40/8 
f 62/40/8 61/57/7 43/42/7 
f 44/43/8 45/44/9 63/39/9 
f 63/39/9 62/40/8 44/43/8 
f 45/44/9 46/45/10 64/58/10 
f 64/58/10 63/39/9 45/44/9 
f 46/45/10 47/46/11 65/38/11 
f 65/38/11 64/58/10 46/45/10 
f 47/46/11 48/47/12 66/59/12 
f 66/59/12 65/38/11 47/46/11 
f 48/47/12 49/48/13 67/52/13 
f 67/52/13 66/59/12 48/47/12 
f 49/48/13 50/49/14 68/51/14 
f 68/51/14 67/52/13 49/48/13 
f 50/49/14 51/50/15 69/50/15 
f 69/50/15 68/51/14 50/49/14 
f 51/50/15 52/51/16 70/49/16 
f 70/49/16 69/50/15 51/50/15 
f 52/51/16 53/52/17 71/48/17 
f 71/48/17 70/49/16 52/51/16 
f 53/52/17 54/53/18 72/60/18 
f 72/60/18 71/48/17 53/52/17 
f 54/53/18 38/38/1 56/46/1 
f 56/46/1 72/60/18 54/53/18 
f 56/46/1 55/54/2 73/20/2 
f 73/20/2 74/22/1 56/46/1 
f 55/54/2 57/55/3 75/61/3 
f 75/61/3 73/20/2 55/54/2 
f 57/55/3 58/43/4 76/62/4 
f 76/62/4 75/61/3 57/55/3 
f 58/43/4 59/56/5 77/63/5 
f 77/63/5 76/62/4 58/43/4 
f 59/56/5 60/12/6 78/12/6 
f 78/12/6 77/63/5 59/56/5 
f 60/12/6 61/57/7 79/10/7 
f 79/10/7 78/12/6 60/12/6 
f 61/57/7 62/40/8 80/64/8 
f 80/64/8 79/10/7 61/57/7 
f 62/40/8 63/39/9 81/65/9 
f 81/65/9 80/64/8 62/40/8 
f 63/39/9 64/58/10 82/3/10 
f 82/3/10 81/65/9 63/39/9 
f 64/58/10 65/38/11 83/4/11 
f 83/4/11 82/3/10 64/58/10 
f 65/38/11 66/59/12 84/66/12 
f 84/66/12 83/4/11 65/38/11 
f 66/59/12 67/52/13 85/67/13 
f 85/67/13 84/66/12 66/59/12 
f 67/52/13 68/51/14 86/68/14 
f 86/68/14 85/67/13 67/52/13 
f 68/51/14 69/50/15 87/30/15 
f 87/30/15 86/68/14 68/51/14 
f 69/50/15 70/49/16 88/69/16 
f 88/69/16 87/30/15 69/50/15 
f 70/49/16 71/48/17 89/70/17 
f 89/70/17 88/69/16 70/49/16 
f 71/48/17 72/60/18 90/71/18 
f 90/71/18 89/70/17 71/48/17 
f 72/60/18 56/46/1 74/22/1 
f 74/22/1 90/71/18 72/60/18 
f 74/22/1 73/20/2 91/19/2 
f 91/19/2 92/72/1 74/22/1 
f 73/20/2 75/61/3 93/73/3 
f 93/73/3 91/19/2 73/20/2 
f 75/61/3 76/62/4 94/15/4 
f 94/15/4 93/73/3 75/61/3 
f 76/62/4 77/63/5 95/74/5 
f 95/74/5 94/15/4 76/62/4 
f 77/63/5 78/12/6 96/11/6 
f 96/11/6 95/74/5 77/63/5 
f 78/12/6 79/10/7 97/9/7 
f 97/9/7 96/11/6 78/12/6 
f 79/10/7 80/64/8 98/75/8 
f 98/75/8 97/9/7 79/10/7 
f 80/64/8 81/65/9 99/76/9 
f 99/76/9 98/75/8 80/64/8 
f 81/65/9 82/3/10 100/2/10 
f 100/2/10 99/76/9 81/65/9 
f 82/3/10 83/4/11 101/77/11 
f 101/77/11 100/2/10 82/3/10 
f 83/4/11 84/66/12 102/78/12 
f 102/78/12 101/77/11 83/4/11 
f 84/66/12 85/67/13 103/79/13 
f 103/79/13 102/78/12 84/66/12 
f 85/67/13 86/68/14 104/31/14 
f 104/31/14 103/79/13 85/67/13 
f 86/68/14 87/30/15 105/29/15 
f 105/29/15 104/31/14 86/68/14 
f 87/30/15 88/69/16 106/80/16 
f 106/80/16 105/29/15 87/30/15 
f 88/69/16 89/70/17 107/25/17 
f 107/25/17 106/80/16 88/69/16 
f 89/70/17 90/71/18 108/81/18 
f 108/81/18 107/25/17 89/70/17 
f 90/71/18 74/22/1 92/72/1 
f 92/72/1 108/81/18 90/71/18 
f 2/82/19 1/83/19 109/84/19 
f 109/84/19 110/85/19 2/82/19 
f 5/86/19 2/82/19 110/85/19 
f 110/85/19 111/87/19 5/86/19 
f 7/88/19 5/86/19 111/87/19 
f 111/87/19 112/89/19 7/88/19 
f 9/90/19 7/88/19 112/89/19 
f 112/89/19 113/91/19 9/90/19 
f 11/92/19 9/90/19 113/91/19 
f 113/91/19 114/93/19 11/92/19 
f 13/94/19 11/92/19 114/93/19 
f 114/93/19 115/95/19 13/94/19 
f 15/96/19 13/94/19 115/95/19 
f 115/95/19 116/97/19 15/96/19 
f 17/98/19 15/96/19 116/97/19 
f 116/97/19 117/99/19 17/98/19 
f 19/100/19 17/98/19 117/99/19 
f 117/99/19 118/101/19 19/100/19 
f 21/102/19 19/100/19 118/101/19 
f 118/101/19 119/103/19 21/102/19 
f 23/104/19 21/102/19 119/103/19 
f 119/103/19 120/105/19 23/104/19 
f 25/106/19 23/104/19 120/105/19 
f 120/105/19 121/107/19 25/106/19 
f 27/108/19 25/106/19 121/107/19 
f 121/107/19 122/109/19 27/108/19 
f 29/110/19 27/108/19 122/109/19 
f 122/109/19 123/111/19 29/110/19 
f 31/112/19 29/110/19 123/111/19 
f 123/111/19 124/113/19 31/112/19 
f 33/114/19 31/112/19 124/113/19 
f 124/113/19 125/115/19 33/114/19 
f 35/116/19 33/114/19 125/115/19 
f 125/115/19 126/117/19 35/116/19 
f 1/83/19 35/116/19 126/117/19 
f 126/117/19 109/84/19 1/83/19 
f 110/85/19 109/84/19 127/118/19 
f 127/118/19 128/119/19 110/85/19 
f 111/87/19 110/85/19 128/119/19 
f 128/119/19 129/120/19 111/87/19 
f 112/89/19 111/87/19 129/120/19 
f 129/120/19 130/121/19 112/89/19 
f 113/91/19 112/89/19 130/121/19 
f 130/121/19 131/122/19 113/91/19 
f 114/93/19 113/91/19 131/122/19 
f 131/122/19 132/123/19 114/93/19 
f 115/95/19 114/93/19 132/123/19 
f 132/123/19 133/124/19 115/95/19 
f 116/97/19 115/95/19 133/124/19 
f 133/124/19 134/125/19 116/97/19 
f 117/99/19 116/97/19 134/125/19 
f 134/125/19 135/126/19 117/99/19 
f 118/101/19 117/99/19 135/126/19 
f 135/126/19 136/127/19 118/101/19 
f 119/103/19 118/101/19 136/127/19 
f 136/127/19 137/128/19 119/103/19 
f 120/105/19 119/103/19 137/128/19 
f 137/128/19 138/129/19 120/105/19 
f 121/107/19 120/105/19 138/129/19 
f 138/129/19 139/130/19 121/107/19 
f 122/109/19 121/107/19 139/130/19 
f 139/130/19 140/131/19 122/109/19 
f 123/111/19 122/109/19 140/131/19 
f 140/131/19 141/132/19 123/111/19 
f 124/113/19 123/111/19 141/132/19 
f 141/132/19 142/133/19 124/113/19 
f 125/115/19 124/113/19 142/133/19 
f 142/133/19 143/134/19 125/115/19 
f 126/117/19 125/115/19 143/134/19 
f 143/134/19 144/135/19 126/117/19 
f 109/84/19 126/117/19 144/135/19 
f 144/135/19 127/118/19 109/84/19 
f 128/119/19 127/118/19 145/136/19 
f 129/120/19 128/119/19 145/136/19 
f 130/121/19 129/120/19 145/136/19 
f 131/122/19 130/121/19 145/136/19 
f 132/123/19 131/122/19 145/136/19 
f 133/124/19 132/123/19 145/136/19 
f 134/125/19 133/124/19 145/136/19 
f 135/126/19 134/125/19 145/136/19 
f 136/127/19 135/126/19 145/136/19 
f 137/128/19 136/127/19 145/136/19 
f 138/129/19 137/128/19 145/136/19 
f 139/130/19 138/129/19 145/136/19 
f 140/131/19 139/130/19 145/136/19 
f 141/132/19 140/131/19 145/136/19 
f 142/133/19 141/132/19 145/136/19 
f 143/134/19 142/133/19 145/136/19 
f 144/135/19 143/134/19 145/136/19 
f 127/118/19 144/135/19 145/136/19 
f 92/137/20 91/138/20 146/139/20 
f 146/139/20 147/140/20 92/137/20 
f 91/138/20 93/141/20 148/142/20 
f 148/142/20 146/139/20 91/138/20 
f 93/141/20 94/143/20 149/144/20 
f 149/144/20 148/142/20 93/141/20 
f 94/143/20 95/145/20 150/146/20 
f 150/146/20 149/144/20 94/143/20 
f 95/145/20 96/147/20 151/148/20 
f 151/148/20 150/146/20 95/145/20 
f 96/147/20 97/149/20 152/150/20 
f 152/150/20 151/148/20 96/147/20 
f 97/149/20 98/151/20 153/152/20 
f 153/152/20 152/150/20 97/149/20 
f 98/151/20 99/153/20 154/154/20 
f 154/154/20 153/152/20 98/151/20 
f 99/153/20 100/155/20 155/156/20 
f 155/156/20 154/154/20 99/153/20 
f 100/155/20 101/157/20 156/158/20 
f 156/158/20 155/156/20 100/155/20 
f 101/157/20 102/159/20 157/160/20 
f 157/160/20 156/158/20 101/157/20 
f 102/159/20 103/161/20 158/162/20 
f 158/162/20 157/160/20 102/159/20 
f 103/161/20 104/163/20 159/164/20 
f 159/164/20 158/162/20 103/161/20 
f 104/163/20 105/165/20 160/166/20 
f 160/166/20 159/164/20 104/163/20 
f 105/165/20 106/167/20 161/168/20 
f 161/168/20 160/166/20 105/165/20 
f 106/167/20 107/169/20 162/170/20 
f 162/170/20 161/168/20 106/167/20 
f 107/169/20 108/171/20 163/172/20 
f 163/172/20 162/170/20 107/169/20 
f 108/171/20 92/137/20 147/140/20 
f 147/140/20 163/172/20 108/171/20 
f 147/140/20 146/139/20 164/173/20 
f 164/173/20 165/174/20 147/140/20 
f 146/139/20 148/142/20 166/175/20 
f 166/175/20 164/173/20 146/139/20 
f 148/142/20 149/144/20 167/176/20 
f 167/176/20 166/175/20 148/142/20 
f 149/144/20 150/146/20 168/177/20 
f 168/177/20 167/176/20 149/144/20 
f 150/146/20 151/148/20 169/178/20 
f 169/178/20 168/177/20 150/146/20 
f 151/148/20 152/150/20 170/179/20 
f 170/179/20 169/178/20 151/148/20 
f 152/150/20 153/152/20 171/180/20 
f 171/180/20 170/179/20 152/150/20 
f 153/152/20 154/154/20 172/181/20 
f 172/181/20 171/180/20 153/152/20 
f 154/154/20 155/156/20 173/182/20 
f 173/182/20 172/181/20 154/154/20 
f 155/156/20 156/158/20 174/183/20 
f 174/183/20 173/182/20 155/156/20 
f 156/158/20 157/160/20 175/184/20 
f 175/184/20 174/183/20 156/158/20 
f 157/160/20 158/162/20 176/185/20 
f 176/185/20 175/184/20 157/160/20 
f 158/162/20 159/164/20 177/186/20 
f 177/186/20 176/185/20 158/162/20 
f 159/164/20 160/166/20 178/187/20 
f 178/187/20 177/186/20 159/164/20 
f 160/166/20 161/168/20 179/188/20 
f 179/188/20 178/187/20 160/166/20 
f 161/168/20 162/170/20 180/189/20 
f 180/189/20 179/188/20 161/168/20 
f 162/170/20 163/172/20 181/190/20 
f 181/190/20 180/189/20 162/170/20 
f 163/172/20 147/140/20 165/174/20 
f 165/174/20 181/190/20 163/172/20 
f 165/174/20 164/173/20 182/191/20 
f 164/173/20 166/175/20 182/191/20 
f 166/175/20 167/176/20 182/191/20 
f 167/176/20 168/177/20 182/191/20 
f 168/177/20 169/178/20 182/191/20 
f 169/178/20 170/179/20 182/191/20 
f 170/179/20 171/180/20 182/191/20 
f 171/180/20 172/181/20 182/191/20 
f 172/181/20 173/182/20 182/191/20 
f 173/182/20 174/183/20 182/191/20 
f 174/183/20 175/184/20 182/191/20 
f 175/184/20 176/185/20 182/191/20 
f 176/185/20 177/186/20 182/191/20 
f 177/186/20 178/187/20 182/191/20 
f 178/187/20 179/188/20 182/191/20 
f 179/188/20 180/189/20 182/191/20 
f 180/189/20 181/190/20 182/191/20 
f 181/190/20 165/174/20 182/191/20 
# 360 faces

